<?xml version="1.0" encoding="utf-8"?>
<!-- Generator: Adobe Illustrator 23.0.6, SVG Export Plug-In . SVG Version: 6.00 Build 0)  -->
<svg version="1.1" id="Layer_1" xmlns="http://www.w3.org/2000/svg" xmlns:xlink="http://www.w3.org/1999/xlink" x="0px" y="0px"
	 viewBox="0 0 268 264" style="enable-background:new 0 0 268 264;" xml:space="preserve">
<style type="text/css">
	.st0{fill:#1B272F;}
	.st1{fill:#32C5FF;}
	.st2{fill:#0EC677;}
	.st3{fill:#FFB031;}
	.st4{fill:#F7002F;}
	.st5{fill:#FFFFFF;}
</style>
<g>
	<path class="st5" d="M90.4,161.2c-1,0-1.9,0.3-2.7,0.8c-0.8,0.5-1.4,1.3-1.8,2.4l-8.9,25l-8.4-24.9c-0.4-1.1-1-1.9-1.8-2.4
		c-1.6-1.1-3.8-1.1-5.5,0c-0.8,0.5-1.4,1.3-1.8,2.4l-9,24.4l-8.5-24.4c-0.4-1.1-1-1.9-1.8-2.4c-0.9-0.5-1.8-0.8-2.9-0.8
		c-1.3,0-2.4,0.4-3.4,1.2c-1,0.8-1.4,1.8-1.4,3.2c0,0.7,0.1,1.4,0.4,2.1l12,32.4c0.4,1,1,1.8,2,2.4c1,0.6,2.1,0.9,3.3,0.9
		c1.2,0,2.2-0.3,3.2-0.9c1-0.6,1.6-1.4,2.1-2.4l8.4-23l8.1,23c0.4,1,1,1.8,2,2.4c1,0.6,2.1,0.9,3.3,0.9c1.2,0,2.3-0.3,3.3-0.9
		c1-0.6,1.6-1.4,2-2.4l12-32.4c0.3-0.9,0.5-1.7,0.5-2.3c0-1.3-0.4-2.4-1.3-3.1C92.7,161.6,91.6,161.2,90.4,161.2z"/>
	<path class="st5" d="M132.9,201.9c0.9,0.9,2.1,1.4,3.6,1.4c1.5,0,2.7-0.5,3.6-1.4c0.9-0.9,1.4-2.2,1.4-3.7v-31.8
		c0-1.5-0.4-2.7-1.4-3.6c-0.9-0.9-2.1-1.4-3.6-1.4c-1.5,0-2.7,0.5-3.6,1.4c-0.9,0.9-1.4,2.1-1.4,3.6v11.6h-17.9v-11.6
		c0-1.5-0.4-2.7-1.4-3.6c-0.9-0.9-2.1-1.4-3.6-1.4c-1.5,0-2.7,0.5-3.6,1.4c-0.9,0.9-1.4,2.1-1.4,3.6v31.8c0,1.6,0.5,2.8,1.4,3.7
		c0.9,0.9,2.1,1.4,3.6,1.4c1.5,0,2.7-0.5,3.6-1.4c0.9-0.9,1.4-2.2,1.4-3.7v-12.3h17.9v12.3C131.5,199.7,132,201,132.9,201.9z"/>
	<path class="st5" d="M179.7,164.4c-0.5-1-1.2-1.8-2.2-2.3c-2-1.1-4.5-1.1-6.3,0c-0.9,0.5-1.7,1.3-2.1,2.3l-15.7,32.3
		c-0.3,0.7-0.5,1.4-0.5,2c0,1.2,0.5,2.2,1.5,3.1c1,0.9,2.2,1.3,3.4,1.3c0.8,0,1.6-0.2,2.3-0.7c0.7-0.4,1.3-1.1,1.7-2l2.8-6.2h19.7
		l2.8,6.2c0.4,0.9,1,1.6,1.6,2c0.7,0.4,1.5,0.7,2.3,0.7c1.3,0,2.4-0.4,3.4-1.3c1-0.8,1.5-1.9,1.5-3.1c0-0.7-0.2-1.3-0.5-2
		L179.7,164.4z M168,186.7l6.5-14.5l6.5,14.5H168z"/>
	<path class="st5" d="M212.8,201.8c0.9,0.9,2.2,1.4,3.8,1.4s2.8-0.5,3.8-1.4c0.9-0.9,1.4-2.1,1.4-3.6v-28.4h8.7c1.6,0,2.9-0.3,3.7-1
		c0.8-0.7,1.2-1.7,1.2-3.1c0-1.4-0.4-2.4-1.2-3.1c-0.8-0.7-2-1-3.7-1h-27.9c-1.7,0-2.9,0.3-3.7,1c-0.8,0.6-1.2,1.7-1.2,3.1
		c0,1.4,0.4,2.4,1.2,3.1c0.8,0.7,2,1,3.7,1h8.7v28.4C211.4,199.7,211.8,200.9,212.8,201.8z"/>
	<path class="st5" d="M90.4,220.9c-1,0-1.9,0.3-2.7,0.8c-0.8,0.5-1.4,1.3-1.8,2.4l-8.9,25l-8.4-24.9c-0.4-1.1-1-1.9-1.8-2.4
		c-1.6-1.1-3.8-1.1-5.5,0c-0.8,0.5-1.4,1.3-1.8,2.4l-9,24.4l-8.5-24.4c-0.4-1.1-1-1.9-1.8-2.4c-0.9-0.5-1.8-0.8-2.9-0.8
		c-1.3,0-2.4,0.4-3.4,1.2c-1,0.8-1.4,1.8-1.4,3.2c0,0.7,0.1,1.4,0.4,2.1l12,32.4c0.4,1,1,1.8,2,2.4c1,0.6,2.1,0.9,3.3,0.9
		c1.2,0,2.2-0.3,3.2-0.9c1-0.6,1.6-1.4,2.1-2.4l8.4-23l8.1,23c0.4,1,1,1.8,2,2.4c1,0.6,2.1,0.9,3.3,0.9s2.3-0.3,3.3-0.9
		c1-0.6,1.6-1.4,2-2.4l12-32.4c0.3-0.9,0.5-1.7,0.5-2.3c0-1.3-0.4-2.3-1.3-3.1C92.7,221.3,91.6,220.9,90.4,220.9z"/>
	<path class="st5" d="M117.2,224.1l-15.7,32.3c-0.3,0.7-0.5,1.4-0.5,2c0,1.2,0.5,2.2,1.5,3.1c1,0.9,2.2,1.3,3.4,1.3
		c0.8,0,1.6-0.2,2.3-0.7c0.7-0.4,1.3-1.1,1.7-2l2.8-6.2h19.7l2.8,6.2c0.4,0.9,1,1.6,1.6,2c0.7,0.4,1.5,0.7,2.3,0.7
		c1.3,0,2.4-0.4,3.4-1.3c1-0.8,1.5-1.8,1.5-3.1c0-0.7-0.2-1.3-0.5-2l-15.7-32.3c-0.5-1-1.2-1.8-2.2-2.3c-2-1.1-4.5-1.1-6.3,0
		C118.4,222.3,117.7,223.1,117.2,224.1z M122.7,231.9l6.5,14.5h-13L122.7,231.9z"/>
	<path class="st5" d="M177.2,221.3h-15.2c-1.5,0-2.7,0.4-3.5,1.2c-0.8,0.8-1.2,2-1.2,3.5v31.8c0,1.6,0.5,2.8,1.4,3.7
		c0.9,0.9,2.1,1.4,3.7,1.4c1.6,0,2.9-0.5,3.8-1.4c0.9-0.9,1.4-2.1,1.4-3.7v-10.5h9.7c4.5,0,8-1.2,10.6-3.5c2.5-2.3,3.8-5.5,3.8-9.6
		c0-4.1-1.3-7.3-3.8-9.6C185.2,222.5,181.7,221.3,177.2,221.3z M180.4,238.6c-1,0.9-2.6,1.3-4.7,1.3h-8.2v-11h8.2
		c4.2,0,6.3,1.9,6.3,5.5C182,236.3,181.4,237.7,180.4,238.6z"/>
	<path class="st5" d="M211.2,247.4h9.7c4.5,0,8-1.2,10.6-3.5c2.5-2.3,3.8-5.5,3.8-9.6c0-4.1-1.3-7.3-3.8-9.6
		c-2.5-2.3-6.1-3.4-10.6-3.4h-15.2c-1.5,0-2.7,0.4-3.5,1.2c-0.8,0.8-1.2,2-1.2,3.5v31.8c0,1.6,0.5,2.8,1.4,3.7
		c0.9,0.9,2.1,1.4,3.7,1.4c1.6,0,2.9-0.5,3.8-1.4c0.9-0.9,1.4-2.1,1.4-3.7V247.4z M211.2,228.9h8.2c4.2,0,6.3,1.9,6.3,5.5
		c0,1.8-0.5,3.2-1.6,4.1c-1,0.9-2.6,1.3-4.7,1.3h-8.2V228.9z"/>
</g>
<g>
	<path class="st5" d="M54.9,35.8L4.4,3.6C3.7,3.1,2.7,3.8,2.9,4.7l14.6,62.5c0.9,3.6,2.8,6.8,5.5,9.2l37.4,32.9
		c0.7,0.6,1.7,0.1,1.7-0.8l-0.9-13.1c-0.2-2.4-1.4-4.6-3.2-6.1l-10.7-8.5c-3.6-2.8-6-6.9-6.8-11.4l-2.2-12.6
		c-0.6-3.2,0.7-6.6,3.3-8.4c3-2.2,7-2.2,10-0.1L58,53l-1-13.6C56.9,37.9,56.1,36.6,54.9,35.8z"/>
	<path class="st5" d="M53.7,73l10.7,8.5c4,3.2,6.6,8,7,13.2l1.3,17.7c0.1,0.8,0.9,1.2,1.5,0.8L125.7,80c2-1.3,3.2-3.4,3.2-5.8V61.9
		l-6.7,3.9c-2.5,1.5-5.5,1.6-8.1,0.4c-2.8-1.4-4.6-4.2-4.8-7.3l-0.6-14.3c-0.3-7.3,3.7-14.2,10.2-17.5l5.2-2.7
		c2.9-1.5,4.7-4.4,4.7-7.7V2c0-0.8-0.8-1.3-1.5-0.9L69.4,35.4c-1.5,0.9-2.4,2.6-2.2,4.3l1.2,16c0.3,3.4-1.5,6.6-4.6,8.2
		c-2.8,1.4-6.3,1.1-9-0.8L49,58.9l1.5,8.8C50.9,69.8,52,71.7,53.7,73z"/>
	<path class="st5" d="M142.1,80l51.5,33.2c0.6,0.4,1.5,0,1.5-0.8l1.5-18c0.4-5.2,2.9-10,7-13.2L214,73c1.6-1.3,2.8-3.2,3.1-5.2
		l1.6-8.8l-5.5,4c-2.7,1.9-6.2,2.2-9,0.8c-3.1-1.6-4.8-4.7-4.6-8.2l1.2-15.8c0.1-1.8-0.7-3.4-2.3-4.3L140.5,1
		c-0.7-0.4-1.5,0.1-1.5,0.9l-0.1,14.9c0,7.1-3.9,13.5-10.2,16.7l-5.2,2.7c-3,1.5-4.9,4.7-4.7,8l0.5,11.6l6.8-3.9
		c2.5-1.5,5.8-1.6,8.3-0.2c2.8,1.5,4.5,4.3,4.5,7.5v15.1C138.9,76.6,140.1,78.8,142.1,80z"/>
	<path class="st5" d="M213.1,35.8l50.4-32.2c0.8-0.5,1.7,0.2,1.5,1.1l-14.6,62.5c-0.9,3.6-2.8,6.8-5.5,9.2l-37.4,32.9
		c-0.7,0.6-1.7,0.1-1.7-0.8l0.9-13.1c0.2-2.4,1.4-4.6,3.2-6.1l10.7-8.5c3.6-2.8,6-6.9,6.8-11.4l2.2-12.6c0.6-3.2-0.7-6.6-3.3-8.4
		c-3-2.2-7-2.2-10-0.1L210,53l1-13.6C211.1,37.9,211.9,36.6,213.1,35.8z"/>
</g>
</svg>
