<svg xmlns="http://www.w3.org/2000/svg" viewBox="0 0 500 500" width="500" height="500">
	<style>
		tspan { white-space:pre }
		.shp0 { fill: none;stroke: #000000;stroke-linecap:round;stroke-linejoin:round;stroke-width: 20 } 
	</style>
	<path id="Layer" class="shp0" d="M43 422C58.67 412.96 75.45 406 92.92 401.32C110.4 396.64 128.41 394.27 146.5 394.27C164.59 394.27 182.6 396.64 200.08 401.32C217.55 406 234.33 412.96 250 422C265.67 412.96 282.45 406 299.92 401.32C317.4 396.64 335.41 394.27 353.5 394.27C371.59 394.27 389.6 396.64 407.08 401.32C424.55 406 441.33 412.96 457 422" />
	<path id="Layer" class="shp0" d="M43 123C58.67 113.96 75.45 107 92.92 102.32C110.4 97.64 128.41 95.27 146.5 95.27C164.59 95.27 182.6 97.64 200.08 102.32C217.55 107 234.33 113.96 250 123C265.67 113.96 282.45 107 299.92 102.32C317.4 97.64 335.41 95.27 353.5 95.27C371.59 95.27 389.6 97.64 407.08 102.32C424.55 107 441.33 113.96 457 123" />
	<path id="Layer" class="shp0" d="M43 123L43 422" />
	<path id="Layer" class="shp0" d="M250 123L250 422" />
	<path id="Layer" class="shp0" d="M457 123L457 422" />
</svg>