<svg xmlns="http://www.w3.org/2000/svg" viewBox="0 0 500 500" width="500" height="500">
	<style>
		tspan { white-space:pre }
		.shp0 { fill: #000000 } 
	</style>
	<path id="Layer" fill-rule="evenodd" class="shp0" d="M264.56 248.22L45.6 480C43.24 477.64 42.07 475.28 42.07 471.13L42.07 25.9C42.07 23.55 42.64 21.78 43.22 20L264.56 248.22ZM279.33 263.57L335.93 321.93L255.12 367.93C255.12 367.93 152.4 426.28 95.76 458.76L279.33 263.57ZM294.69 247.64L294.62 247.7L356.06 182.69C367.3 189.59 441.63 232.14 450.43 237.02C459.94 241.74 461.08 250.59 449.87 257.07C439.27 262.98 364.94 305.45 355.42 310.74L294.69 247.64ZM279.29 232.31L279.31 232.29L279.33 232.31L279.29 232.31ZM279.31 232.29L77.34 23.43C121.65 48.85 254.83 124.98 254.83 124.98L336.53 171.57L279.31 232.29Z" />
</svg>