<svg xmlns="http://www.w3.org/2000/svg" viewBox="0 0 500 500" width="500" height="500">
	<style>
		tspan { white-space:pre }
		.shp0 { fill: #000000 } 
	</style>
	<path id="Layer" fill-rule="evenodd" class="shp0" d="M79.99 45.65C97.72 44.11 185.56 43.1 250 43.1C314.44 43.08 357.66 43.46 420.01 45.65C440.1 57.57 479.62 102.99 480 114.88L480 134.62C480 159.57 456.62 181.58 435.48 181.58C410 181.58 388.8 160.45 388.8 135.38C388.8 160.45 368.3 181.58 342.81 181.58C317.33 181.58 297.51 160.45 297.51 135.38C297.51 160.45 275.74 181.58 250.25 181.58L249.79 181.58C224.32 181.58 202.52 160.45 202.52 135.38C202.52 160.45 182.71 181.58 157.25 181.58C131.76 181.58 111.25 160.45 111.25 135.38C111.25 160.45 90.05 181.58 64.56 181.58C43.38 181.58 20 159.59 20 134.62L20 114.88C20.38 102.95 59.87 57.57 79.99 45.65ZM202.24 169.86C202.84 170.92 203.48 171.96 204.15 172.97C204.83 173.99 205.54 174.98 206.28 175.94C207.02 176.91 207.8 177.85 208.61 178.76C209.42 179.67 210.26 180.55 211.13 181.4C213.6 183.81 216.3 185.98 219.18 187.87C222.07 189.76 225.13 191.37 228.33 192.67C231.52 193.97 234.84 194.95 238.23 195.61C241.61 196.27 245.05 196.61 248.51 196.6L251.57 196.6C255.02 196.6 258.47 196.27 261.85 195.61C265.24 194.95 268.56 193.96 271.75 192.66C274.95 191.36 278.01 189.75 280.9 187.86C283.78 185.96 286.48 183.8 288.95 181.38C289.82 180.53 290.65 179.65 291.46 178.74C292.27 177.83 293.04 176.89 293.79 175.92C294.53 174.96 295.24 173.97 295.91 172.95C296.58 171.94 297.22 170.9 297.82 169.84C298.43 170.9 299.07 171.94 299.76 172.96C300.44 173.97 301.15 174.96 301.9 175.93C302.65 176.89 303.44 177.83 304.25 178.74C305.07 179.65 305.91 180.53 306.79 181.38C316.41 190.77 329.56 196.58 344.13 196.58C347.58 196.59 351.02 196.25 354.41 195.59C357.8 194.93 361.11 193.94 364.31 192.64C367.5 191.34 370.57 189.73 373.45 187.84C376.34 185.94 379.03 183.78 381.5 181.36C384.99 177.95 387.64 174.27 390.07 170.06C392.49 174.31 395.86 177.95 399.39 181.36C401.85 183.78 404.55 185.95 407.43 187.84C410.32 189.73 413.38 191.34 416.58 192.65C419.77 193.95 423.09 194.94 426.48 195.6C429.86 196.27 433.31 196.6 436.76 196.6C438.5 196.6 440.33 196.1 441.8 195.6C443.87 216.92 444.71 237.29 445.02 252.15L445.02 252.22L445.14 274.59C444.75 319.33 449.54 419.57 425.39 444.18C387.98 452.88 319.12 456.9 250.02 456.9C180.92 456.88 112.06 452.9 74.64 444.2C50.49 419.55 55.29 319.31 54.9 274.57L55.02 252.2L55.02 252.11C55.32 237.27 56.19 216.9 58.24 195.57C59.71 196.08 61.53 196.56 63.3 196.56C66.75 196.56 70.19 196.23 73.58 195.57C76.97 194.9 80.28 193.91 83.48 192.61C86.68 191.31 89.74 189.7 92.62 187.8C95.51 185.91 98.21 183.74 100.67 181.33C104.18 177.91 107.55 174.27 109.99 170.02C112.4 174.23 115.05 177.91 118.54 181.33C121 183.74 123.7 185.91 126.58 187.8C129.47 189.7 132.53 191.31 135.73 192.61C138.92 193.92 142.24 194.91 145.63 195.57C149.02 196.23 152.46 196.56 155.91 196.56C170.42 196.56 183.65 190.72 193.23 181.33C194.11 180.47 194.95 179.59 195.77 178.68C196.58 177.77 197.37 176.83 198.12 175.87C198.87 174.91 199.58 173.91 200.26 172.9C200.94 171.89 201.59 170.85 202.2 169.79L202.24 169.86ZM163.79 219.47C156.6 219.47 127.85 219.47 107.82 275.7L86.32 352.89C70.37 410.29 91.42 411.69 117.67 411.77C156.6 410.31 178.16 382.04 178.16 353.77C199.71 357.3 224.85 359.08 250 359.08C275.15 359.06 300.29 357.3 321.84 353.77C321.84 382.04 343.42 410.31 382.33 411.75C408.59 411.71 429.63 410.31 413.68 352.91L392.16 275.7C372.15 219.47 343.4 219.47 336.19 219.47C320.97 219.53 307.46 219.47 290.73 237.73C277.56 236.35 263.8 235.68 250 235.68C236.22 235.66 222.44 236.35 209.27 237.73C192.54 219.47 179.03 219.51 163.79 219.47ZM250 263.67C250 263.67 290.98 301.31 298.38 314.67L271.54 313.61L271.54 337C271.54 338.11 260.77 337.65 250 337.15C239.21 337.65 228.48 338.09 228.48 337.02L228.48 313.63L201.64 314.71C208.98 301.33 249.96 263.72 250 263.69L250 263.67Z" />
</svg>