<svg xmlns="http://www.w3.org/2000/svg" viewBox="0 0 500 500" width="500" height="500">
	<style>
		tspan { white-space:pre }
		.shp0 { fill: #000000 } 
	</style>
	<path id="Layer" fill-rule="evenodd" class="shp0" d="M445.92 20C464.67 20 480 34.84 480 53.14L480 446.86C480 465.18 464.67 480 445.92 480L53.94 480C35.18 480 20 465.18 20 446.86L20 53.14C20 34.84 35.18 20 53.94 20L445.92 20ZM161.85 122.89C161.85 101.08 144.14 83.35 122.29 83.35C100.39 83.35 82.75 101.08 82.75 122.89C82.75 144.72 100.37 162.47 122.29 162.47C144.12 162.47 161.85 144.72 161.85 122.89ZM156.45 192.5L88.14 192.5L88.14 412L156.45 412L156.45 192.5ZM411.92 412L411.92 291.52C411.92 232.39 399.16 186.96 330.14 186.96C296.92 186.96 274.69 205.17 265.54 222.42L264.66 222.42L264.66 192.5L199.23 192.5L199.23 412L267.35 412L267.35 303.38C267.35 274.74 272.77 247.05 308.29 247.05C343.26 247.05 343.78 279.8 343.78 305.26L343.78 412L411.92 412Z" />
</svg>