<svg xmlns="http://www.w3.org/2000/svg" viewBox="0 0 500 500" width="500" height="500">
	<style>
		tspan { white-space:pre }
		.shp0 { fill: #000000 } 
	</style>
	<path id="Layer" class="shp0" d="M279.52 250C279.57 267.1 276.25 284.04 269.76 299.86C263.27 315.68 253.73 330.07 241.68 342.2C229.64 354.34 215.32 363.99 199.55 370.59C183.78 377.2 166.86 380.64 149.76 380.72C132.66 380.64 115.74 377.2 99.97 370.59C84.2 363.99 69.88 354.34 57.83 342.2C45.79 330.07 36.25 315.68 29.76 299.86C23.26 284.04 19.95 267.1 20 250C19.95 232.9 23.26 215.96 29.76 200.14C36.25 184.32 45.79 169.93 57.83 157.8C69.88 145.66 84.2 136.01 99.97 129.41C115.74 122.8 132.66 119.36 149.76 119.28C166.86 119.36 183.78 122.8 199.55 129.41C215.32 136.01 229.64 145.66 241.68 157.8C253.73 169.93 263.27 184.32 269.76 200.14C276.25 215.96 279.57 232.9 279.52 250L279.52 250ZM421.73 250C421.73 317.85 392.79 373.05 356.95 373.05C321.11 373.05 291.98 317.85 291.98 250C291.98 182.15 321.11 126.95 356.95 126.95C392.79 126.95 421.73 182.15 421.73 250M480 250C480 310.76 469.84 360.21 457.19 360.21C444.54 360.21 434.38 310.76 434.38 250C434.38 189.24 444.54 139.79 457.19 139.79C469.84 139.79 480 189.24 480 250Z" />
</svg>