<svg xmlns="http://www.w3.org/2000/svg" viewBox="0 0 500 500" width="500" height="500">
	<style>
		tspan { white-space:pre }
		.shp0 { fill: #000000 } 
	</style>
	<path id="Layer" fill-rule="evenodd" class="shp0" d="M465.13 236.79C464.74 234.21 458.36 231.01 456.25 229.55C452.11 226.6 447.82 223.53 443.41 220.85C441.11 219.45 437.14 218.39 434.59 217.24C431.14 215.84 423.44 214.45 421.52 211.76C417.67 206.76 415.08 200.61 412.4 194.57C409.68 188.46 406.36 182.07 403.68 175.75C402.28 172.68 401.61 169.98 400.07 167.03C397.78 162.58 395.2 158.3 392.34 154.19C389.48 150.09 386.36 146.17 382.99 142.48C379.62 138.78 376.01 135.31 372.19 132.09C368.36 128.87 364.33 125.9 360.11 123.21C354.61 119.76 348.48 116.58 341.67 114.4C337.84 113.27 333.22 113.9 329.12 113L326.44 113C324.14 112.36 322.2 109.93 320.4 108.67C316.43 105.98 312.44 104.18 307.71 102.26C306.04 101.5 301.31 99.7 299.62 101.08C298.63 101.36 298.09 101.77 297.82 102.8C296.8 104.33 297.71 106.65 298.34 108.05C300.27 112.13 302.96 114.57 305.39 118.02C307.58 121.07 310.26 124.54 311.79 127.85C315.13 135.02 316.66 142.95 319.73 150.12C320.04 150.84 320.38 151.55 320.72 152.25C321.07 152.95 321.44 153.65 321.83 154.33C322.21 155.01 322.61 155.69 323.03 156.35C323.45 157.01 323.88 157.66 324.33 158.31C325.73 160.28 328.26 161.68 329.06 164.11C330.6 166.68 326.76 175.15 325.86 177.84C322.55 188.32 323.18 202.95 327.01 212.05C328.55 215.62 329.94 219.87 334.05 220.87C334.3 220.6 334.05 220.73 334.56 220.6C335.48 213.55 335.73 206.76 338.17 201.24C339.57 197.79 342.38 195.36 344.3 192.56C345.58 193.32 345.58 195.62 346.35 197.16C348.04 201.13 349.8 205.46 351.91 209.48C352.94 211.52 354.01 213.54 355.13 215.53C356.24 217.53 357.4 219.5 358.59 221.45C359.79 223.39 361.02 225.32 362.29 227.21C363.57 229.11 364.88 230.98 366.23 232.83C366.74 233.51 367.26 234.18 367.79 234.84C368.33 235.5 368.87 236.15 369.43 236.79C369.99 237.43 370.56 238.06 371.15 238.68C371.73 239.29 372.33 239.9 372.94 240.49C373.97 241.39 375.06 241.93 375.89 243.04L376.17 243.04L376.17 243.43C372.34 242.01 369.91 238.02 366.84 235.72C361.07 231.37 354.17 224.85 350.22 218.57C348.57 214.96 346.77 211.53 344.97 207.93L344.97 207.64C344.19 208.68 344.43 209.69 344.05 211.23C342.4 217.65 343.67 224.93 337.92 227.23C331.38 229.93 326.49 222.88 324.44 219.7C317.93 209.02 316.12 191.08 320.72 176.57C321.76 173.39 321.88 169.6 323.68 166.99C323.27 164.69 321.51 164.04 320.48 162.64C318.67 160.22 317.14 157.41 315.74 154.72C313.06 149.45 311.12 143.17 309.09 137.53C308.19 135.21 307.94 132.93 307.04 130.71C305.51 127.41 302.73 124.06 300.52 121.12C297.55 116.91 288.99 108.7 292.44 100.39C297.8 87.2 316.66 97.17 323.94 101.77C325.75 102.93 327.78 105.37 329.89 106.27C333.07 106.4 336.27 106.63 339.47 106.79C345.47 108.21 351.14 109.36 355.88 112.04C377.9 124.96 392.22 138.16 405.44 159.96C408.26 164.56 409.66 169.56 411.96 174.58C412.76 176.47 413.59 178.35 414.43 180.22C415.27 182.1 416.12 183.96 417 185.82C417.87 187.68 418.76 189.53 419.67 191.37C420.58 193.21 421.5 195.04 422.44 196.87C424.07 200.21 425.41 203.92 427.71 206.72C428.6 208.01 431.16 208.39 432.7 209.16C436.93 211.34 442.03 212.99 446.06 215.56C447.92 216.73 449.76 217.94 451.57 219.19C453.39 220.44 455.18 221.72 456.94 223.03C458.71 224.35 460.45 225.7 462.16 227.08C463.87 228.47 465.56 229.88 467.22 231.33C469.59 233.48 471.32 236.6 473.62 238.9L473.62 240.05C471.57 240.7 469.52 241.34 467.48 241.85C462.98 242.99 458.99 242.74 454.64 243.89C451.96 244.65 448.62 245.67 445.83 245.92L446.07 246.19C447.76 250.88 456.73 254.79 460.83 257.59C462.1 258.49 463.33 259.44 464.52 260.44C465.71 261.43 466.87 262.47 467.98 263.56C469.1 264.64 470.17 265.76 471.2 266.92C472.23 268.09 473.22 269.29 474.15 270.53C475.42 271.79 476.7 272.94 477.99 274.23C478.85 275.51 479.12 277.18 480 278.33L480 278.71C478.2 278.1 477.3 276.37 475.9 275.42C473.08 273.5 470.24 271.22 467.46 269.42C462.58 266.33 456.92 264.51 451.94 261.44C449.12 259.64 446.44 257.61 443.76 255.5C441.3 253.7 438.66 250.27 437.12 247.7C436.22 246.28 436.07 244.61 435.02 243.6C435.28 241.16 438.35 241.16 440.27 240.4C446.92 237.56 454.87 236.53 465.13 236.79ZM112.82 378.32C112.7 371.26 112.5 364.21 112.22 357.15C111.94 350.1 111.59 343.05 111.16 336C110.72 328.96 110.22 321.91 109.63 314.88C109.05 307.84 108.39 300.82 107.65 293.8L107.5 293.8L80.47 378.32L66.96 378.32L40.13 293.8L39.93 293.8C39.41 300.83 38.94 307.86 38.52 314.9C38.1 321.94 37.74 328.99 37.42 336.03C37.11 343.07 36.85 350.12 36.65 357.17C36.45 364.22 36.29 371.27 36.2 378.32L20 378.32C21.05 340.64 23.68 305.3 27.86 272.33L49.9 272.33L75.49 350.22L75.64 350.22L101.46 272.33L122.45 272.33C127.08 310.95 129.81 346.31 130.65 378.32L112.82 378.32ZM207.58 300.12C200.34 339.32 190.79 367.84 178.99 385.6C169.75 399.33 159.63 406.17 148.65 406.17C145.71 406.17 142.13 405.29 137.8 403.52L137.8 394.06C139.91 394.38 142.4 394.56 145.2 394.56C150.33 394.56 154.45 393.12 157.6 390.3C161.37 386.85 163.25 382.98 163.25 378.7C163.25 375.73 161.78 369.7 158.84 360.61L139.41 300.12L156.85 300.12L170.78 345.35C173.93 355.63 175.25 362.8 174.71 366.88C182.38 346.49 187.71 324.19 190.72 300.12L207.58 300.12ZM443.81 378.32L393.41 378.32L393.41 272.33L410.37 272.33L410.37 365.29L443.81 365.29L443.81 378.32ZM380.24 380.91L373.34 392.83L347.94 378.03C343.74 379.28 339.11 379.91 334.05 379.91C320.51 379.91 310.41 375.98 303.7 368.12C296.34 359.42 292.7 345.74 292.7 327.11C292.7 308.15 296.84 293.82 305.08 284.08C312.67 275.17 323.22 270.72 336.71 270.72C364.25 270.72 378.01 288.28 378.01 323.35C378.01 342.42 373.89 356.84 365.59 366.53C364.1 368.3 362.43 369.87 360.71 371.33L380.18 380.91L380.24 380.91ZM317.05 357.2C321.03 363.58 327.26 366.78 335.79 366.78C352 366.78 360.13 353.29 360.13 326.38C360.13 311.3 357.99 300.29 353.69 293.36C349.72 286.97 343.46 283.77 334.97 283.77C318.75 283.77 310.62 297.13 310.62 323.83C310.62 339.09 312.77 350.2 317.08 357.1L317.05 357.2ZM285.31 348.96C285.31 357.97 282.01 365.36 275.42 371.11C268.82 376.86 260.02 379.74 248.89 379.74C238.48 379.74 228.5 376.44 218.74 369.87L223.28 360.75C231.68 364.96 239.25 367.03 246.09 367.03C252.45 367.03 257.46 365.63 261.1 362.81C262 362.13 262.83 361.34 263.55 360.47C264.27 359.59 264.89 358.63 265.39 357.61C265.88 356.59 266.26 355.51 266.51 354.41C266.75 353.3 266.87 352.16 266.85 351.03C266.85 344.7 262.44 339.34 254.43 334.83C246.99 330.75 232.14 322.24 232.14 322.24C224.05 316.36 220.02 310.05 220.02 299.68C220.02 291.06 223.03 284.16 229.03 278.88C235.07 273.56 242.83 270.93 252.42 270.93C262.23 270.93 271.2 273.54 279.25 278.79L275.17 287.91C273.56 287.21 271.93 286.58 270.26 286.04C268.59 285.5 266.9 285.05 265.19 284.68C263.48 284.31 261.75 284.03 260.01 283.83C258.27 283.63 256.52 283.52 254.77 283.5C249.35 283.5 245.15 284.81 242.24 287.45C241.5 288.06 240.83 288.75 240.25 289.51C239.66 290.26 239.16 291.08 238.75 291.95C238.34 292.81 238.02 293.72 237.81 294.65C237.6 295.58 237.49 296.54 237.48 297.5C237.48 303.78 241.97 309.19 250.25 313.79C257.78 317.91 273 326.63 273 326.63C281.3 332.47 285.42 338.7 285.42 349.02L285.31 348.96ZM334.47 125.4C335.5 126.41 337.15 127.05 337.92 128.33C338.57 129.21 338.68 130.11 339.45 131.01C339.45 134.1 338.57 136.13 336.77 137.4L336.5 137.68C335.46 135.65 334.58 133.6 333.55 131.55C332.24 129.77 330.48 128.31 329.45 126.32L329.18 126.32L329.18 126.07C330.73 125.7 332.23 125.44 334.43 125.44L334.47 125.4Z" />
</svg>