<svg xmlns="http://www.w3.org/2000/svg" viewBox="0 0 500 500" width="500" height="500">
	<style>
		tspan { white-space:pre }
		.shp0 { fill: none;stroke: #ffffff;stroke-linecap:round;stroke-linejoin:round;stroke-width: 20 } 
	</style>
	<path id="Layer" class="shp0" d="M92.63 44.21L189.47 44.21L237.89 165.26L177.37 201.58C183.8 214.61 191.28 227.1 199.74 238.91C208.21 250.72 217.63 261.82 227.9 272.1C238.18 282.37 249.28 291.79 261.09 300.26C272.9 308.72 285.39 316.2 298.42 322.63L334.74 262.11L455.79 310.53L455.79 407.37C455.79 413.73 454.54 420.02 452.1 425.9C449.67 431.77 446.1 437.11 441.61 441.61C437.11 446.1 431.77 449.67 425.9 452.1C420.02 454.54 413.73 455.79 407.37 455.79C360.54 452.94 314.62 441.61 271.84 422.35C229.05 403.09 190.13 376.22 156.95 343.05C123.78 309.87 96.91 270.95 77.65 228.16C58.39 185.38 47.06 139.46 44.21 92.63C44.21 86.27 45.46 79.98 47.9 74.1C50.33 68.23 53.9 62.89 58.39 58.39C62.89 53.9 68.23 50.33 74.1 47.9C79.98 45.46 86.27 44.21 92.63 44.21Z" />
</svg>