<svg xmlns="http://www.w3.org/2000/svg" viewBox="0 0 500 500" width="500" height="500">
	<style>
		tspan { white-space:pre }
		.shp0 { fill: #000000 } 
	</style>
	<path id="Layer" fill-rule="evenodd" class="shp0" d="M480 250C480 316.73 377.02 370.85 250 370.85C122.98 370.85 20 316.73 20 250C20 183.27 122.98 129.17 250 129.17C377.02 129.17 480 183.27 480 250ZM198.27 258.35C198.97 257.08 199.62 255.79 200.21 254.48C200.81 253.17 201.35 251.83 201.84 250.47C202.33 249.12 202.76 247.74 203.14 246.35C203.52 244.96 203.85 243.55 204.12 242.13C206.91 227.78 204.81 216.6 197.79 208.59C190.78 200.57 179.64 196.57 164.36 196.57L113.57 196.57L90 317.67L116.41 317.67L122.68 285.49L145.31 285.49C155.28 285.49 163.5 284.42 169.94 282.35C176.5 280.19 182.51 276.59 187.52 271.8C191.94 267.73 195.53 263.23 198.27 258.35ZM154.36 215.68C164.4 215.68 171.07 217.53 174.43 221.23C177.76 224.92 178.57 231.28 176.8 240.28C174.98 249.66 171.47 256.34 166.26 260.36C161.05 264.36 153.11 266.37 142.46 266.37L126.39 266.37L136.26 215.68L154.36 215.68ZM264.64 285.49L291.27 285.49L302.23 229.13C304.43 217.67 302.77 209.38 297.19 204.27C291.61 199.16 281.49 196.59 266.79 196.59L243.44 196.59L249.71 164.39L223.51 164.39L199.94 285.51L226.16 285.51L239.65 216.12L260.58 216.12C267.31 216.12 271.7 217.23 273.75 219.45C275.8 221.65 276.26 225.82 275.05 231.91L264.64 285.49ZM410.25 242.13C413.05 227.78 410.92 216.6 403.91 208.61C396.89 200.59 385.76 196.59 370.48 196.59L319.71 196.59L296.13 317.69L322.55 317.69L328.81 285.49L351.43 285.49C361.42 285.49 369.64 284.42 376.08 282.35C377.71 281.81 379.32 281.18 380.88 280.46C382.45 279.74 383.98 278.94 385.45 278.05C386.93 277.17 388.36 276.2 389.73 275.15C391.1 274.11 392.41 272.99 393.65 271.8C398.08 267.73 401.67 263.23 404.41 258.35C405.11 257.09 405.76 255.8 406.36 254.48C406.96 253.17 407.5 251.83 407.99 250.48C408.48 249.12 408.91 247.74 409.29 246.35C409.67 244.96 409.99 243.55 410.25 242.13ZM360.51 215.68C370.54 215.68 377.25 217.53 380.58 221.23C383.92 224.92 384.74 231.28 382.98 240.28C381.14 249.66 377.63 256.34 372.42 260.36C367.22 264.36 359.29 266.37 348.61 266.37L332.55 266.37L342.44 215.68L360.51 215.68Z" />
</svg>