<svg xmlns="http://www.w3.org/2000/svg" viewBox="0 0 500 500" width="500" height="500">
	<style>
		tspan { white-space:pre }
		.shp0 { fill: #000000 } 
	</style>
	<path id="Layer" fill-rule="evenodd" class="shp0" d="M480 77.5L480 422.5C480 454.24 454.24 480 422.5 480L77.5 480C45.74 480 20 454.24 20 422.5L20 77.5C20 45.74 45.74 20 77.5 20L422.5 20C454.24 20 480 45.74 480 77.5ZM220.1 107.4C220.1 92.16 207.74 79.8 192.5 79.8L107.4 79.8C92.16 79.8 79.8 92.16 79.8 107.4L79.8 368.45C79.8 383.67 92.16 396.05 107.4 396.05L192.5 396.05C207.74 396.05 220.1 383.69 220.1 368.45L220.1 107.4ZM420.2 253.45L420.2 107.4C420.2 92.16 407.84 79.8 392.6 79.8L307.5 79.8C292.28 79.8 279.9 92.16 279.9 107.4L279.9 253.45C279.9 268.67 292.26 281.05 307.5 281.05L392.6 281.05C407.84 281.05 420.2 268.67 420.2 253.45Z" />
</svg>