<svg xmlns="http://www.w3.org/2000/svg" viewBox="0 0 500 500" width="500" height="500">
	<style>
		tspan { white-space:pre }
		.shp0 { fill: #000000 } 
	</style>
	<path id="Layer" fill-rule="evenodd" class="shp0" d="M451.4 250L480 297.34L429.65 479.98L241.82 431.03L213.95 383.3L157.54 383.75L20 250L157.52 116.27L213.97 116.7L241.76 68.97L429.67 20L480 202.72L451.4 250ZM218.49 124.36L114.68 227.42L279.73 227.42L362.22 88.44L218.49 124.36ZM218.47 375.68L362.22 411.59L279.71 272.62L114.68 272.62L218.49 375.64L218.47 375.68ZM402.45 388.98L402.44 388.95L402.43 388.96L402.45 388.98ZM402.44 388.95L442.3 250L402.45 111L319.9 250.02L402.44 388.95Z" />
</svg>