<?xml version="1.0" encoding="utf-8"?>
<!-- Generator: Adobe Illustrator 23.0.6, SVG Export Plug-In . SVG Version: 6.00 Build 0)  -->
<svg version="1.1" id="Layer_1" xmlns="http://www.w3.org/2000/svg" xmlns:xlink="http://www.w3.org/1999/xlink" x="0px" y="0px"
	 viewBox="0 0 268 264" style="enable-background:new 0 0 268 264;" xml:space="preserve">
<style type="text/css">
	.st0{fill:#FFFFFF;}
	.st1{fill:#F7002F;}
	.st2{fill:#32C5FF;}
	.st3{fill:#0EC677;}
	.st4{fill:#FFB031;}
</style>
<g>
	<path class="st0" d="M90.4,161.2c-1,0-1.9,0.3-2.7,0.8c-0.8,0.5-1.4,1.3-1.8,2.4l-8.9,25l-8.4-24.9c-0.4-1.1-1-1.9-1.8-2.4
		c-1.6-1.1-3.8-1.1-5.5,0c-0.8,0.5-1.4,1.3-1.8,2.4l-9,24.4L42,164.5c-0.4-1.1-1-1.9-1.8-2.4c-0.9-0.5-1.8-0.8-2.9-0.8
		c-1.3,0-2.4,0.4-3.4,1.2s-1.4,1.8-1.4,3.2c0,0.7,0.1,1.4,0.4,2.1l12,32.4c0.4,1,1,1.8,2,2.4c1,0.6,2.1,0.9,3.3,0.9s2.2-0.3,3.2-0.9
		c1-0.6,1.6-1.4,2.1-2.4l8.4-23l8.1,23c0.4,1,1,1.8,2,2.4c1,0.6,2.1,0.9,3.3,0.9c1.2,0,2.3-0.3,3.3-0.9c1-0.6,1.6-1.4,2-2.4l12-32.4
		c0.3-0.9,0.5-1.7,0.5-2.3c0-1.3-0.4-2.4-1.3-3.1C92.7,161.6,91.6,161.2,90.4,161.2z"/>
	<path class="st0" d="M132.9,201.9c0.9,0.9,2.1,1.4,3.6,1.4s2.7-0.5,3.6-1.4c0.9-0.9,1.4-2.2,1.4-3.7v-31.8c0-1.5-0.4-2.7-1.4-3.6
		c-0.9-0.9-2.1-1.4-3.6-1.4s-2.7,0.5-3.6,1.4c-0.9,0.9-1.4,2.1-1.4,3.6V178h-17.9v-11.6c0-1.5-0.4-2.7-1.4-3.6
		c-0.9-0.9-2.1-1.4-3.6-1.4s-2.7,0.5-3.6,1.4s-1.4,2.1-1.4,3.6v31.8c0,1.6,0.5,2.8,1.4,3.7s2.1,1.4,3.6,1.4s2.7-0.5,3.6-1.4
		s1.4-2.2,1.4-3.7v-12.3h17.9v12.3C131.5,199.7,132,201,132.9,201.9z"/>
	<path class="st0" d="M179.7,164.4c-0.5-1-1.2-1.8-2.2-2.3c-2-1.1-4.5-1.1-6.3,0c-0.9,0.5-1.7,1.3-2.1,2.3l-15.7,32.3
		c-0.3,0.7-0.5,1.4-0.5,2c0,1.2,0.5,2.2,1.5,3.1c1,0.9,2.2,1.3,3.4,1.3c0.8,0,1.6-0.2,2.3-0.7c0.7-0.4,1.3-1.1,1.7-2l2.8-6.2h19.7
		l2.8,6.2c0.4,0.9,1,1.6,1.6,2c0.7,0.4,1.5,0.7,2.3,0.7c1.3,0,2.4-0.4,3.4-1.3c1-0.8,1.5-1.9,1.5-3.1c0-0.7-0.2-1.3-0.5-2
		L179.7,164.4z M168,186.7l6.5-14.5l6.5,14.5H168z"/>
	<path class="st0" d="M212.8,201.8c0.9,0.9,2.2,1.4,3.8,1.4s2.8-0.5,3.8-1.4c0.9-0.9,1.4-2.1,1.4-3.6v-28.4h8.7c1.6,0,2.9-0.3,3.7-1
		s1.2-1.7,1.2-3.1c0-1.4-0.4-2.4-1.2-3.1c-0.8-0.7-2-1-3.7-1h-27.9c-1.7,0-2.9,0.3-3.7,1c-0.8,0.6-1.2,1.7-1.2,3.1
		c0,1.4,0.4,2.4,1.2,3.1c0.8,0.7,2,1,3.7,1h8.7v28.4C211.4,199.7,211.8,200.9,212.8,201.8z"/>
	<path class="st0" d="M90.4,220.9c-1,0-1.9,0.3-2.7,0.8c-0.8,0.5-1.4,1.3-1.8,2.4l-8.9,25l-8.4-24.9c-0.4-1.1-1-1.9-1.8-2.4
		c-1.6-1.1-3.8-1.1-5.5,0c-0.8,0.5-1.4,1.3-1.8,2.4l-9,24.4L42,224.2c-0.4-1.1-1-1.9-1.8-2.4c-0.9-0.5-1.8-0.8-2.9-0.8
		c-1.3,0-2.4,0.4-3.4,1.2s-1.4,1.8-1.4,3.2c0,0.7,0.1,1.4,0.4,2.1l12,32.4c0.4,1,1,1.8,2,2.4s2.1,0.9,3.3,0.9s2.2-0.3,3.2-0.9
		s1.6-1.4,2.1-2.4l8.4-23l8.1,23c0.4,1,1,1.8,2,2.4s2.1,0.9,3.3,0.9s2.3-0.3,3.3-0.9s1.6-1.4,2-2.4l12-32.4c0.3-0.9,0.5-1.7,0.5-2.3
		c0-1.3-0.4-2.3-1.3-3.1C92.7,221.3,91.6,220.9,90.4,220.9z"/>
	<path class="st0" d="M117.2,224.1l-15.7,32.3c-0.3,0.7-0.5,1.4-0.5,2c0,1.2,0.5,2.2,1.5,3.1s2.2,1.3,3.4,1.3c0.8,0,1.6-0.2,2.3-0.7
		c0.7-0.4,1.3-1.1,1.7-2l2.8-6.2h19.7l2.8,6.2c0.4,0.9,1,1.6,1.6,2c0.7,0.4,1.5,0.7,2.3,0.7c1.3,0,2.4-0.4,3.4-1.3
		c1-0.8,1.5-1.8,1.5-3.1c0-0.7-0.2-1.3-0.5-2l-15.7-32.3c-0.5-1-1.2-1.8-2.2-2.3c-2-1.1-4.5-1.1-6.3,0
		C118.4,222.3,117.7,223.1,117.2,224.1z M122.7,231.9l6.5,14.5h-13L122.7,231.9z"/>
	<path class="st0" d="M177.2,221.3H162c-1.5,0-2.7,0.4-3.5,1.2s-1.2,2-1.2,3.5v31.8c0,1.6,0.5,2.8,1.4,3.7c0.9,0.9,2.1,1.4,3.7,1.4
		c1.6,0,2.9-0.5,3.8-1.4c0.9-0.9,1.4-2.1,1.4-3.7v-10.5h9.7c4.5,0,8-1.2,10.6-3.5c2.5-2.3,3.8-5.5,3.8-9.6s-1.3-7.3-3.8-9.6
		C185.2,222.5,181.7,221.3,177.2,221.3z M180.4,238.6c-1,0.9-2.6,1.3-4.7,1.3h-8.2v-11h8.2c4.2,0,6.3,1.9,6.3,5.5
		C182,236.3,181.4,237.7,180.4,238.6z"/>
	<path class="st0" d="M211.2,247.4h9.7c4.5,0,8-1.2,10.6-3.5c2.5-2.3,3.8-5.5,3.8-9.6s-1.3-7.3-3.8-9.6s-6.1-3.4-10.6-3.4h-15.2
		c-1.5,0-2.7,0.4-3.5,1.2s-1.2,2-1.2,3.5v31.8c0,1.6,0.5,2.8,1.4,3.7c0.9,0.9,2.1,1.4,3.7,1.4c1.6,0,2.9-0.5,3.8-1.4
		c0.9-0.9,1.4-2.1,1.4-3.7L211.2,247.4L211.2,247.4z M211.2,228.9h8.2c4.2,0,6.3,1.9,6.3,5.5c0,1.8-0.5,3.2-1.6,4.1
		c-1,0.9-2.6,1.3-4.7,1.3h-8.2V228.9z"/>
</g>
<g>
	<path class="st1" d="M259.5,3.3L209,35.5c-1.7,1.1-2.9,3-3,5l-1.2,16.3c0,0.2,0.1,0.4,0.3,0.5s0.4,0.1,0.6,0l8.6-6.2
		c1.1-0.8,2.3-1.1,3.5-1.1s2.4,0.3,3.4,1.1c2,1.4,2.9,3.8,2.5,6.2l-2.1,12.1c-0.7,3.8-2.7,7.3-5.7,9.7l-10,8
		c-2.3,1.8-3.7,4.5-3.9,7.3l-1.1,15.1c-0.1,2,2.2,3.1,3.6,1.8L242.2,78c3-2.6,5.1-6.1,6-10l14.7-62.4C263.3,3.7,261.2,2.2,259.5,3.3
		z"/>
	<path class="st2" d="M25.8,78l37.8,33.2c1.5,1.3,3.8,0.1,3.6-1.8l-1.1-14.9c-0.2-2.9-1.6-5.6-3.9-7.3l0,0L52,79.1
		c-3-2.4-5.1-5.9-5.7-9.7l-2.1-12.1c-0.4-2.3,0.4-4.7,2.3-6.1c2.1-1.6,5-1.6,7.1-0.1l8.9,6.4c0.2,0.1,0.4,0.1,0.6,0
		c0.2-0.1,0.3-0.3,0.3-0.5L62,40.6c-0.2-2.1-1.3-3.9-3-5L8.5,3.3C6.8,2.2,4.7,3.7,5.1,5.6L19.8,68C20.7,71.9,22.8,75.4,25.8,78z"/>
	<path class="st3" d="M51.6,68.4c0.4,2.5,1.8,4.8,3.8,6.3L65.6,83c3.4,2.7,5.6,6.8,5.9,11.2l1.4,18.7c0.1,1.7,2,2.6,3.4,1.7
		l50.8-32.8c2.5-1.6,4-4.4,4-7.4V59.8c0-0.2-0.1-0.4-0.3-0.5s-0.4-0.1-0.5,0l-8.8,5.1c-1.8,1-4,1.2-5.8,0.3c-2-1-3.3-2.9-3.4-5.2
		l-0.6-13.8c-0.3-6.2,3.1-12,8.7-14.8l5-2.6c3.5-1.8,5.7-5.4,5.7-9.3V3c0-1.7-1.9-2.8-3.3-1.9l-57,34c-2.1,1.3-3.4,3.7-3.2,6.2
		l1.2,15.4c0.2,2.4-1.1,4.7-3.2,5.8s-4.6,0.8-6.4-0.6l-8.7-6.3c0,0-0.2-0.1-0.3-0.1s-0.2,0-0.3,0.1c-0.3,0.2-0.3,0.5-0.2,0.6
		L51.6,68.4z"/>
	<path class="st4" d="M202.4,82.7l10-8c2-1.6,3.3-3.8,3.8-6.3l2.2-12.3c0-0.1,0.1-0.4-0.2-0.6c-0.3-0.2-0.5,0-0.6,0l0,0l-8.4,6.1
		c-1.9,1.4-4.4,1.7-6.4,0.6c-2.2-1.1-3.4-3.4-3.2-5.8l1.2-15.2c0.2-2.5-1.1-4.9-3.2-6.2L140,1.2c-1.5-0.9-3.3,0.2-3.3,1.9v16
		c0,6-3.4,11.5-8.7,14.2l-5,2.6c-3.6,1.8-5.9,5.7-5.7,9.7l0.6,13.8c0,0.2,0.1,0.4,0.3,0.5c0.2,0.1,0.4,0.1,0.5,0l8.8-5.1
		c1.8-1.1,4.1-1.2,6-0.2c2,1.1,3.2,3.1,3.2,5.3v14.5c0,3,1.5,5.8,4,7.4l50.9,32.8c1.4,0.9,3.2,0,3.4-1.7l1.4-18.9
		C196.8,89.6,198.9,85.5,202.4,82.7z"/>
</g>
</svg>
