<?xml version="1.0" encoding="utf-8"?>
<!-- Generator: Adobe Illustrator 23.0.6, SVG Export Plug-In . SVG Version: 6.00 Build 0)  -->
<svg version="1.1" id="Layer_1" xmlns="http://www.w3.org/2000/svg" xmlns:xlink="http://www.w3.org/1999/xlink" x="0px" y="0px"
	 viewBox="0 0 500 116" style="enable-background:new 0 0 500 116;" xml:space="preserve">
<style type="text/css">
	.st0{fill:#FFFFFF;}
	.st1{fill:#F7002F;}
	.st2{fill:#32C5FF;}
	.st3{fill:#0EC677;}
	.st4{fill:#FFB031;}
</style>
<g>
	<path class="st0" d="M350,7.1c-1,0-1.9,0.3-2.7,0.8c-0.8,0.5-1.4,1.3-1.8,2.4l-8.9,25l-8.4-24.9c-0.4-1.1-1-1.9-1.8-2.4
		c-1.6-1.1-3.8-1.1-5.5,0c-0.8,0.5-1.4,1.3-1.8,2.4l-9,24.4l-8.5-24.4c-0.4-1.1-1-1.9-1.8-2.4C299,7.3,298,7.1,297,7.1
		c-1.3,0-2.4,0.4-3.4,1.2s-1.4,1.8-1.4,3.2c0,0.7,0.1,1.4,0.4,2.1l12,32.4c0.4,1,1,1.8,2,2.4c1,0.6,2.1,0.9,3.3,0.9
		c1.2,0,2.2-0.3,3.2-0.9c1-0.6,1.6-1.4,2.1-2.4l8.4-23l8.1,23c0.4,1,1,1.8,2,2.4c1,0.6,2.1,0.9,3.3,0.9c1.2,0,2.3-0.3,3.3-0.9
		c1-0.6,1.6-1.4,2-2.4l12-32.4c0.3-0.9,0.5-1.7,0.5-2.3c0-1.3-0.4-2.4-1.3-3.1C352.3,7.4,351.2,7.1,350,7.1z"/>
	<path class="st0" d="M392.5,47.7c0.9,0.9,2.1,1.4,3.6,1.4s2.7-0.5,3.6-1.4s1.4-2.2,1.4-3.7V12.2c0-1.5-0.4-2.7-1.4-3.6
		c-0.9-0.9-2.1-1.4-3.6-1.4s-2.7,0.5-3.6,1.4s-1.4,2.1-1.4,3.6v11.6h-17.9V12.2c0-1.5-0.4-2.7-1.4-3.6c-0.9-0.9-2.1-1.4-3.6-1.4
		s-2.7,0.5-3.6,1.4s-1.4,2.1-1.4,3.6V44c0,1.6,0.5,2.8,1.4,3.7s2.1,1.4,3.6,1.4s2.7-0.5,3.6-1.4s1.4-2.2,1.4-3.7V31.8h17.9V44
		C391.1,45.6,391.6,46.8,392.5,47.7z"/>
	<path class="st0" d="M439.3,10.2c-0.5-1-1.2-1.8-2.2-2.3c-2-1.1-4.5-1.1-6.3,0c-0.9,0.5-1.7,1.3-2.1,2.3L413,42.5
		c-0.3,0.7-0.5,1.4-0.5,2c0,1.2,0.5,2.2,1.5,3.1c1,0.9,2.2,1.3,3.4,1.3c0.8,0,1.6-0.2,2.3-0.7c0.7-0.4,1.3-1.1,1.7-2l2.8-6.2H444
		l2.8,6.2c0.4,0.9,1,1.6,1.6,2c0.7,0.4,1.5,0.7,2.3,0.7c1.3,0,2.4-0.4,3.4-1.3c1-0.8,1.5-1.9,1.5-3.1c0-0.7-0.2-1.3-0.5-2
		L439.3,10.2z M427.6,32.5l6.5-14.5l6.5,14.5H427.6z"/>
	<path class="st0" d="M472.4,47.7c0.9,0.9,2.2,1.4,3.8,1.4s2.8-0.5,3.8-1.4c0.9-0.9,1.4-2.1,1.4-3.6V15.6h8.7c1.6,0,2.9-0.3,3.7-1
		c0.8-0.7,1.2-1.7,1.2-3.1s-0.4-2.4-1.2-3.1c-0.8-0.7-2-1-3.7-1h-27.9c-1.7,0-2.9,0.3-3.7,1c-0.8,0.6-1.2,1.7-1.2,3.1
		s0.4,2.4,1.2,3.1c0.8,0.7,2,1,3.7,1h8.7V44C471,45.5,471.5,46.8,472.4,47.7z"/>
	<path class="st0" d="M350,66.7c-1,0-1.9,0.3-2.7,0.8c-0.8,0.5-1.4,1.3-1.8,2.4l-8.9,25L328.2,70c-0.4-1.1-1-1.9-1.8-2.4
		c-1.6-1.1-3.8-1.1-5.5,0c-0.8,0.5-1.4,1.3-1.8,2.4l-9,24.4L301.7,70c-0.4-1.1-1-1.9-1.8-2.4c-0.9-0.5-1.8-0.8-2.9-0.8
		c-1.3,0-2.4,0.4-3.4,1.2c-1,0.8-1.4,1.8-1.4,3.2c0,0.7,0.1,1.4,0.4,2.1l12,32.4c0.4,1,1,1.8,2,2.4s2.1,0.9,3.3,0.9
		c1.2,0,2.2-0.3,3.2-0.9s1.6-1.4,2.1-2.4l8.4-23l8.1,23c0.4,1,1,1.8,2,2.4s2.1,0.9,3.3,0.9c1.2,0,2.3-0.3,3.3-0.9s1.6-1.4,2-2.4
		l12-32.4c0.3-0.9,0.5-1.7,0.5-2.3c0-1.3-0.4-2.3-1.3-3.1C352.3,67.1,351.2,66.7,350,66.7z"/>
	<path class="st0" d="M376.9,69.9l-15.7,32.3c-0.3,0.7-0.5,1.4-0.5,2c0,1.2,0.5,2.2,1.5,3.1s2.2,1.3,3.4,1.3c0.8,0,1.6-0.2,2.3-0.7
		c0.7-0.4,1.3-1.1,1.7-2l2.8-6.2h19.7l2.8,6.2c0.4,0.9,1,1.6,1.6,2c0.7,0.4,1.5,0.7,2.3,0.7c1.3,0,2.4-0.4,3.4-1.3
		c1-0.8,1.5-1.8,1.5-3.1c0-0.7-0.2-1.3-0.5-2l-15.7-32.3c-0.5-1-1.2-1.8-2.2-2.3c-2-1.1-4.5-1.1-6.3,0
		C378.1,68.2,377.4,68.9,376.9,69.9z M382.3,77.7l6.5,14.5h-13L382.3,77.7z"/>
	<path class="st0" d="M436.8,67.2h-15.2c-1.5,0-2.7,0.4-3.5,1.2c-0.8,0.8-1.2,2-1.2,3.5v31.8c0,1.6,0.5,2.8,1.4,3.7
		c0.9,0.9,2.1,1.4,3.7,1.4s2.9-0.5,3.8-1.4s1.4-2.1,1.4-3.7V93.2h9.7c4.5,0,8-1.2,10.6-3.5c2.5-2.3,3.8-5.5,3.8-9.6
		s-1.3-7.3-3.8-9.6C444.9,68.3,441.3,67.2,436.8,67.2z M440,84.4c-1,0.9-2.6,1.3-4.7,1.3h-8.2v-11h8.2c4.2,0,6.3,1.9,6.3,5.5
		C441.6,82.1,441.1,83.5,440,84.4z"/>
	<path class="st0" d="M470.9,93.2h9.7c4.5,0,8-1.2,10.6-3.5c2.5-2.3,3.8-5.5,3.8-9.6s-1.3-7.3-3.8-9.6c-2.5-2.3-6.1-3.4-10.6-3.4
		h-15.2c-1.5,0-2.7,0.4-3.5,1.2c-0.8,0.8-1.2,2-1.2,3.5v31.8c0,1.6,0.5,2.8,1.4,3.7c0.9,0.9,2.1,1.4,3.7,1.4s2.9-0.5,3.8-1.4
		s1.4-2.1,1.4-3.7L470.9,93.2L470.9,93.2z M470.9,74.7h8.2c4.2,0,6.3,1.9,6.3,5.5c0,1.8-0.5,3.2-1.6,4.1c-1,0.9-2.6,1.3-4.7,1.3
		h-8.2L470.9,74.7L470.9,74.7z"/>
</g>
<g>
	<path class="st1" d="M204.5,110.6c-0.1,0.7,0.5,1,0.6,1.1c0.2,0.1,0.7,0.3,1.3-0.2l38.5-33.9c2.9-2.5,4.9-5.9,5.8-9.6l15-63.6
		c0.2-0.7-0.3-1.1-0.5-1.2c-0.1-0.1-0.7-0.4-1.3,0l-51.5,32.9c-1.5,0.9-2.4,2.6-2.6,4.3l-1.2,15.5l7.8-5.7c1.2-0.9,2.7-1.4,4.2-1.4
		s2.9,0.4,4.1,1.3c2.3,1.6,3.5,4.5,3,7.4l-2.2,12.4c-0.7,4.2-3,7.9-6.3,10.5L209,88.5c-2.1,1.6-3.4,4.1-3.6,6.7L204.5,110.6z"/>
	<path class="st2" d="M25.9,77.7l38.5,33.9c0.5,0.5,1.1,0.2,1.3,0.2c0.2-0.1,0.7-0.4,0.6-1.1l-1.2-15.2c-0.2-2.6-1.5-5.1-3.6-6.7
		L51,80.5c-3.3-2.6-5.5-6.4-6.2-10.5l-2.2-12.4c-0.5-2.8,0.6-5.6,2.8-7.2c2.6-1.9,6-1.9,8.6-0.1l8.1,5.9l-1.2-15.7
		c-0.1-1.7-1.1-3.4-2.6-4.3L6.9,3.3C6.6,3.1,6.4,3.1,6.2,3.1c-0.3,0-0.6,0.2-0.7,0.2C5.4,3.4,5,3.8,5.1,4.5l15,63.6
		C21,71.8,23,75.2,25.9,77.7z"/>
	<path class="st3" d="M58.3,63l-7.8-5.7l2,11.3c0.4,2.3,1.6,4.4,3.4,5.8l10.5,8.3c3.7,3,6.1,7.4,6.5,12.2l1.5,19
		c0,0.6,0.5,0.9,0.6,0.9c0.2,0.1,0.6,0.3,1.1-0.1l51.8-33.4c2.2-1.5,3.6-3.9,3.6-6.6V60.9l-8.2,4.7c-2.2,1.3-4.8,1.4-6.9,0.3
		c-2.4-1.2-3.9-3.5-4.1-6.2l-0.6-14c-0.3-6.7,3.4-13.1,9.4-16.2l5.1-2.6c3.2-1.6,5.2-4.9,5.2-8.5V2.2c0-0.6-0.4-0.9-0.6-1
		c-0.2-0.1-0.6-0.3-1.2,0L71.5,35.7c-1.8,1.1-2.9,3.1-2.7,5.2L70,56.7c0.2,2.9-1.3,5.6-3.9,7C63.7,64.9,60.6,64.6,58.3,63z"/>
	<path class="st4" d="M142.8,81.4l51.9,33.5c0.5,0.3,1,0.1,1.1,0.1c0.2-0.1,0.6-0.4,0.6-0.9l1.5-19.3c0.4-4.8,2.7-9.2,6.5-12.2
		l10.2-8.1c1.8-1.5,3-3.5,3.4-5.8l2-11.3l-7.5,5.5c-2.3,1.7-5.3,1.9-7.7,0.7c-2.6-1.4-4.1-4-3.9-7L202,41c0.2-2.1-0.9-4.2-2.7-5.3
		L140.9,1.2c-0.5-0.3-1-0.1-1.1,0c-0.2,0.1-0.6,0.4-0.6,1v16.3c0,6.5-3.6,12.4-9.5,15.4l-5.1,2.6c-3.3,1.7-5.4,5.2-5.2,8.9l0.6,13.1
		l8.2-4.7c1.2-0.7,2.5-1,3.8-1c1.2,0,2.3,0.3,3.3,0.8c2.4,1.3,3.9,3.7,3.9,6.4v14.8C139.2,77.4,140.5,79.9,142.8,81.4z"/>
</g>
</svg>
