<?xml version="1.0" encoding="utf-8"?>
<!-- Generator: Adobe Illustrator 23.0.6, SVG Export Plug-In . SVG Version: 6.00 Build 0)  -->
<svg version="1.1" id="Layer_1" xmlns="http://www.w3.org/2000/svg" xmlns:xlink="http://www.w3.org/1999/xlink" x="0px" y="0px"
	 viewBox="0 0 206 104" style="enable-background:new 0 0 206 104;" xml:space="preserve">
<style type="text/css">
	.st0{fill:#1B272F;}
	.st1{fill:#FFFFFF;}
</style>
<g>
	<path class="st1" d="M59.5,1.1c-1,0-1.9,0.3-2.7,0.8c-0.8,0.5-1.4,1.3-1.8,2.4l-8.9,25L37.7,4.3c-0.4-1.1-1-1.9-1.8-2.4
		c-1.6-1.1-3.8-1.1-5.5,0c-0.8,0.5-1.4,1.3-1.8,2.4l-9,24.4L11.2,4.3c-0.4-1.1-1-1.9-1.8-2.4C8.5,1.3,7.5,1.1,6.5,1.1
		C5.2,1.1,4,1.5,3,2.3C2.1,3,1.6,4.1,1.6,5.5c0,0.7,0.1,1.4,0.4,2.1L14,40c0.4,1,1,1.8,2,2.4c1,0.6,2.1,0.9,3.3,0.9
		c1.2,0,2.2-0.3,3.2-0.9c1-0.6,1.6-1.4,2.1-2.4L33,17L41,40c0.4,1,1,1.8,2,2.4c1,0.6,2.1,0.9,3.3,0.9c1.2,0,2.3-0.3,3.3-0.9
		c1-0.6,1.6-1.4,2-2.4l12-32.4C63.9,6.7,64,5.9,64,5.3C64,4,63.6,3,62.7,2.2C61.8,1.4,60.7,1.1,59.5,1.1z"/>
	<path class="st1" d="M102,41.7c0.9,0.9,2.1,1.4,3.6,1.4c1.5,0,2.7-0.5,3.6-1.4c0.9-0.9,1.4-2.2,1.4-3.7V6.2c0-1.5-0.4-2.7-1.4-3.6
		c-0.9-0.9-2.1-1.4-3.6-1.4c-1.5,0-2.7,0.5-3.6,1.4c-0.9,0.9-1.4,2.1-1.4,3.6v11.6H82.8V6.2c0-1.5-0.4-2.7-1.4-3.6
		c-0.9-0.9-2.1-1.4-3.6-1.4c-1.5,0-2.7,0.5-3.6,1.4c-0.9,0.9-1.4,2.1-1.4,3.6V38c0,1.6,0.5,2.8,1.4,3.7c0.9,0.9,2.1,1.4,3.6,1.4
		c1.5,0,2.7-0.5,3.6-1.4c0.9-0.9,1.4-2.2,1.4-3.7V25.8h17.9V38C100.6,39.6,101.1,40.8,102,41.7z"/>
	<path class="st1" d="M148.8,4.2c-0.5-1-1.2-1.8-2.2-2.3c-2-1.1-4.5-1.1-6.3,0c-0.9,0.5-1.7,1.3-2.1,2.3l-15.7,32.3
		c-0.3,0.7-0.5,1.4-0.5,2c0,1.2,0.5,2.2,1.5,3.1c1,0.9,2.2,1.3,3.4,1.3c0.8,0,1.6-0.2,2.3-0.7c0.7-0.4,1.3-1.1,1.7-2l2.8-6.2h19.7
		l2.8,6.2c0.4,0.9,1,1.6,1.6,2c0.7,0.4,1.5,0.7,2.3,0.7c1.3,0,2.4-0.4,3.4-1.3c1-0.8,1.5-1.9,1.5-3.1c0-0.7-0.2-1.3-0.5-2L148.8,4.2
		z M137.1,26.5l6.5-14.5l6.5,14.5H137.1z"/>
	<path class="st1" d="M181.9,41.7c0.9,0.9,2.2,1.4,3.8,1.4s2.8-0.5,3.8-1.4c0.9-0.9,1.4-2.1,1.4-3.6V9.6h8.7c1.6,0,2.9-0.3,3.7-1
		c0.8-0.7,1.2-1.7,1.2-3.1c0-1.4-0.4-2.4-1.2-3.1c-0.8-0.7-2-1-3.7-1h-27.9c-1.7,0-2.9,0.3-3.7,1c-0.8,0.6-1.2,1.7-1.2,3.1
		c0,1.4,0.4,2.4,1.2,3.1c0.8,0.7,2,1,3.7,1h8.7V38C180.5,39.5,181,40.8,181.9,41.7z"/>
	<path class="st1" d="M59.5,60.7c-1,0-1.9,0.3-2.7,0.8c-0.8,0.5-1.4,1.3-1.8,2.4l-8.9,25L37.7,64c-0.4-1.1-1-1.9-1.8-2.4
		c-1.6-1.1-3.8-1.1-5.5,0c-0.8,0.5-1.4,1.3-1.8,2.4l-9,24.4L11.2,64c-0.4-1.1-1-1.9-1.8-2.4c-0.9-0.5-1.8-0.8-2.9-0.8
		c-1.3,0-2.4,0.4-3.4,1.2c-1,0.8-1.4,1.8-1.4,3.2c0,0.7,0.1,1.4,0.4,2.1l12,32.4c0.4,1,1,1.8,2,2.4c1,0.6,2.1,0.9,3.3,0.9
		c1.2,0,2.2-0.3,3.2-0.9c1-0.6,1.6-1.4,2.1-2.4l8.4-23l8.1,23c0.4,1,1,1.8,2,2.4c1,0.6,2.1,0.9,3.3,0.9c1.2,0,2.3-0.3,3.3-0.9
		c1-0.6,1.6-1.4,2-2.4l12-32.4c0.3-0.9,0.5-1.7,0.5-2.3c0-1.3-0.4-2.3-1.3-3.1C61.8,61.1,60.7,60.7,59.5,60.7z"/>
	<path class="st1" d="M86.4,63.9L70.7,96.2c-0.3,0.7-0.5,1.4-0.5,2c0,1.2,0.5,2.2,1.5,3.1c1,0.9,2.2,1.3,3.4,1.3
		c0.8,0,1.6-0.2,2.3-0.7c0.7-0.4,1.3-1.1,1.7-2l2.8-6.2h19.7l2.8,6.2c0.4,0.9,1,1.6,1.6,2c0.7,0.4,1.5,0.7,2.3,0.7
		c1.3,0,2.4-0.4,3.4-1.3c1-0.8,1.5-1.8,1.5-3.1c0-0.7-0.2-1.3-0.5-2L97,63.9c-0.5-1-1.2-1.8-2.2-2.3c-2-1.1-4.5-1.1-6.3,0
		C87.6,62.2,86.9,62.9,86.4,63.9z M91.8,71.7l6.5,14.5h-13L91.8,71.7z"/>
	<path class="st1" d="M146.3,61.2H131c-1.5,0-2.7,0.4-3.5,1.2c-0.8,0.8-1.2,2-1.2,3.5v31.8c0,1.6,0.5,2.8,1.4,3.7
		c0.9,0.9,2.1,1.4,3.7,1.4c1.6,0,2.9-0.5,3.8-1.4c0.9-0.9,1.4-2.1,1.4-3.7V87.2h9.7c4.5,0,8-1.2,10.6-3.5c2.5-2.3,3.8-5.5,3.8-9.6
		c0-4.1-1.3-7.3-3.8-9.6C154.4,62.3,150.8,61.2,146.3,61.2z M149.5,78.4c-1,0.9-2.6,1.3-4.7,1.3h-8.2v-11h8.2c4.2,0,6.3,1.9,6.3,5.5
		C151.1,76.1,150.6,77.5,149.5,78.4z"/>
	<path class="st1" d="M180.4,87.2h9.7c4.5,0,8-1.2,10.6-3.5c2.5-2.3,3.8-5.5,3.8-9.6c0-4.1-1.3-7.3-3.8-9.6
		c-2.5-2.3-6.1-3.4-10.6-3.4h-15.2c-1.5,0-2.7,0.4-3.5,1.2c-0.8,0.8-1.2,2-1.2,3.5v31.8c0,1.6,0.5,2.8,1.4,3.7
		c0.9,0.9,2.1,1.4,3.7,1.4c1.6,0,2.9-0.5,3.8-1.4c0.9-0.9,1.4-2.1,1.4-3.7V87.2z M180.4,68.7h8.2c4.2,0,6.3,1.9,6.3,5.5
		c0,1.8-0.5,3.2-1.6,4.1c-1,0.9-2.6,1.3-4.7,1.3h-8.2V68.7z"/>
</g>
</svg>
