<?xml version="1.0" encoding="utf-8"?>
<!-- Generator: Adobe Illustrator 23.0.6, SVG Export Plug-In . SVG Version: 6.00 Build 0)  -->
<svg version="1.1" id="Layer_1" xmlns="http://www.w3.org/2000/svg" xmlns:xlink="http://www.w3.org/1999/xlink" x="0px" y="0px"
	 viewBox="0 0 268 116" style="enable-background:new 0 0 268 116;" xml:space="preserve">
<style type="text/css">
	.st0{fill:#32C5FF;}
	.st1{fill:#0EC677;}
	.st2{fill:#FFB031;}
	.st3{fill:#F7002F;}
	.st4{fill:#FFFFFF;}
</style>
<g>
	<path d="M54.9,36.6L4.4,4.4C3.7,4,2.7,4.6,2.9,5.5L17.5,68c0.9,3.6,2.8,6.8,5.5,9.2l37.4,32.9c0.7,0.6,1.7,0.1,1.7-0.8l-0.9-13.1
		c-0.2-2.4-1.4-4.6-3.2-6.1l-10.7-8.5c-3.6-2.8-6-6.9-6.8-11.4l-2.2-12.6c-0.6-3.2,0.7-6.6,3.3-8.4c3-2.2,7-2.2,10-0.1l6.4,4.6
		l-1-13.6C56.9,38.7,56.1,37.4,54.9,36.6z"/>
	<path d="M53.7,73.8l10.7,8.5c4,3.2,6.6,8,7,13.2l1.3,17.7c0.1,0.8,0.9,1.2,1.5,0.8l51.5-33.1c2-1.3,3.2-3.4,3.2-5.8V62.8l-6.7,3.9
		c-2.5,1.5-5.5,1.6-8.1,0.4c-2.8-1.4-4.6-4.2-4.8-7.3l-0.6-14.3c-0.3-7.3,3.7-14.2,10.2-17.5l5.2-2.7c2.9-1.5,4.7-4.4,4.7-7.7V2.8
		c0-0.8-0.8-1.3-1.5-0.9L69.4,36.2c-1.5,0.9-2.4,2.6-2.2,4.3l1.2,16c0.3,3.4-1.5,6.6-4.6,8.2c-2.8,1.4-6.3,1.1-9-0.8L49,59.7
		l1.5,8.8C50.9,70.6,52,72.5,53.7,73.8z"/>
	<path d="M142.1,80.9l51.5,33.2c0.6,0.4,1.5,0,1.5-0.8l1.5-18c0.4-5.2,2.9-10,7-13.2l10.4-8.3c1.6-1.3,2.8-3.2,3.1-5.2l1.6-8.8
		l-5.5,4c-2.7,1.9-6.2,2.2-9,0.8c-3.1-1.6-4.8-4.7-4.6-8.2l1.2-15.8c0.1-1.8-0.7-3.4-2.3-4.3l-58-34.4C139.9,1.5,139,2,139,2.7
		l-0.1,14.9c0,7.1-3.9,13.5-10.2,16.7l-5.2,2.7c-3,1.5-4.9,4.7-4.7,8l0.5,11.6l6.8-3.9c2.5-1.5,5.8-1.6,8.3-0.2
		c2.8,1.5,4.5,4.3,4.5,7.5v15.1C138.9,77.4,140.1,79.6,142.1,80.9z"/>
	<path d="M213.1,36.6l50.4-32.2c0.8-0.5,1.7,0.2,1.5,1.1L250.5,68c-0.9,3.6-2.8,6.8-5.5,9.2l-37.4,32.9c-0.7,0.6-1.7,0.1-1.7-0.8
		l0.9-13.1c0.2-2.4,1.4-4.6,3.2-6.1l10.7-8.5c3.6-2.8,6-6.9,6.8-11.4l2.2-12.6c0.6-3.2-0.7-6.6-3.3-8.4c-3-2.2-7-2.2-10-0.1
		l-6.4,4.6l1-13.6C211.1,38.7,211.9,37.4,213.1,36.6z"/>
</g>
</svg>
