<?xml version="1.0" encoding="utf-8"?>
<!-- Generator: Adobe Illustrator 23.0.6, SVG Export Plug-In . SVG Version: 6.00 Build 0)  -->
<svg version="1.1" id="Layer_1" xmlns="http://www.w3.org/2000/svg" xmlns:xlink="http://www.w3.org/1999/xlink" x="0px" y="0px"
	 viewBox="0 0 500 116" style="enable-background:new 0 0 500 116;" xml:space="preserve">
<style type="text/css">
	.st0{fill:#1B272F;}
	.st1{fill:#32C5FF;}
	.st2{fill:#0EC677;}
	.st3{fill:#FFB031;}
	.st4{fill:#F7002F;}
	.st5{fill:#FFFFFF;}
</style>
<g>
	<g>
		<path class="st5" d="M349.7,7.1c-1,0-1.9,0.3-2.7,0.8c-0.8,0.5-1.4,1.3-1.8,2.4l-8.9,25l-8.4-24.9c-0.4-1.1-1-1.9-1.8-2.4
			c-1.6-1.1-3.8-1.1-5.5,0c-0.8,0.5-1.4,1.3-1.8,2.4l-9,24.4l-8.5-24.4c-0.4-1.1-1-1.9-1.8-2.4c-0.9-0.5-1.8-0.8-2.9-0.8
			c-1.3,0-2.4,0.4-3.4,1.2c-1,0.8-1.4,1.8-1.4,3.2c0,0.7,0.1,1.4,0.4,2.1l12,32.4c0.4,1,1,1.8,2,2.4c1,0.6,2.1,0.9,3.3,0.9
			c1.2,0,2.2-0.3,3.2-0.9c1-0.6,1.6-1.4,2.1-2.4l8.4-23l8.1,23c0.4,1,1,1.8,2,2.4c1,0.6,2.1,0.9,3.3,0.9c1.2,0,2.3-0.3,3.3-0.9
			c1-0.6,1.6-1.4,2-2.4l12-32.4c0.3-0.9,0.5-1.7,0.5-2.3c0-1.3-0.4-2.4-1.3-3.1C352,7.4,351,7.1,349.7,7.1z"/>
		<path class="st5" d="M392.2,47.7c0.9,0.9,2.1,1.4,3.6,1.4c1.5,0,2.7-0.5,3.6-1.4c0.9-0.9,1.4-2.2,1.4-3.7V12.2
			c0-1.5-0.4-2.7-1.4-3.6c-0.9-0.9-2.1-1.4-3.6-1.4c-1.5,0-2.7,0.5-3.6,1.4c-0.9,0.9-1.4,2.1-1.4,3.6v11.6H373V12.2
			c0-1.5-0.4-2.7-1.4-3.6c-0.9-0.9-2.1-1.4-3.6-1.4c-1.5,0-2.7,0.5-3.6,1.4c-0.9,0.9-1.4,2.1-1.4,3.6V44c0,1.6,0.5,2.8,1.4,3.7
			c0.9,0.9,2.1,1.4,3.6,1.4c1.5,0,2.7-0.5,3.6-1.4c0.9-0.9,1.4-2.2,1.4-3.7V31.8h17.9V44C390.9,45.6,391.3,46.8,392.2,47.7z"/>
		<path class="st5" d="M439.1,10.2c-0.5-1-1.2-1.8-2.2-2.3c-2-1.1-4.5-1.1-6.3,0c-0.9,0.5-1.7,1.3-2.1,2.3l-15.7,32.3
			c-0.3,0.7-0.5,1.4-0.5,2c0,1.2,0.5,2.2,1.5,3.1c1,0.9,2.2,1.3,3.4,1.3c0.8,0,1.6-0.2,2.3-0.7c0.7-0.4,1.3-1.1,1.7-2L424,40h19.7
			l2.8,6.2c0.4,0.9,1,1.6,1.6,2c0.7,0.4,1.5,0.7,2.3,0.7c1.3,0,2.4-0.4,3.4-1.3c1-0.8,1.5-1.9,1.5-3.1c0-0.7-0.2-1.3-0.5-2
			L439.1,10.2z M427.3,32.5l6.5-14.5l6.5,14.5H427.3z"/>
		<path class="st5" d="M472.1,47.7c0.9,0.9,2.2,1.4,3.8,1.4s2.8-0.5,3.8-1.4c0.9-0.9,1.4-2.1,1.4-3.6V15.6h8.7c1.6,0,2.9-0.3,3.7-1
			c0.8-0.7,1.2-1.7,1.2-3.1c0-1.4-0.4-2.4-1.2-3.1c-0.8-0.7-2-1-3.7-1H462c-1.7,0-2.9,0.3-3.7,1c-0.8,0.6-1.2,1.7-1.2,3.1
			c0,1.4,0.4,2.4,1.2,3.1c0.8,0.7,2,1,3.7,1h8.7V44C470.7,45.5,471.2,46.8,472.1,47.7z"/>
		<path class="st5" d="M349.7,66.7c-1,0-1.9,0.3-2.7,0.8c-0.8,0.5-1.4,1.3-1.8,2.4l-8.9,25L327.9,70c-0.4-1.1-1-1.9-1.8-2.4
			c-1.6-1.1-3.8-1.1-5.5,0c-0.8,0.5-1.4,1.3-1.8,2.4l-9,24.4L301.4,70c-0.4-1.1-1-1.9-1.8-2.4c-0.9-0.5-1.8-0.8-2.9-0.8
			c-1.3,0-2.4,0.4-3.4,1.2c-1,0.8-1.4,1.8-1.4,3.2c0,0.7,0.1,1.4,0.4,2.1l12,32.4c0.4,1,1,1.8,2,2.4c1,0.6,2.1,0.9,3.3,0.9
			c1.2,0,2.2-0.3,3.2-0.9c1-0.6,1.6-1.4,2.1-2.4l8.4-23l8.1,23c0.4,1,1,1.8,2,2.4c1,0.6,2.1,0.9,3.3,0.9c1.2,0,2.3-0.3,3.3-0.9
			c1-0.6,1.6-1.4,2-2.4l12-32.4c0.3-0.9,0.5-1.7,0.5-2.3c0-1.3-0.4-2.3-1.3-3.1C352,67.1,351,66.7,349.7,66.7z"/>
		<path class="st5" d="M376.6,69.9l-15.7,32.3c-0.3,0.7-0.5,1.4-0.5,2c0,1.2,0.5,2.2,1.5,3.1c1,0.9,2.2,1.3,3.4,1.3
			c0.8,0,1.6-0.2,2.3-0.7c0.7-0.4,1.3-1.1,1.7-2l2.8-6.2h19.7l2.8,6.2c0.4,0.9,1,1.6,1.6,2c0.7,0.4,1.5,0.7,2.3,0.7
			c1.3,0,2.4-0.4,3.4-1.3c1-0.8,1.5-1.8,1.5-3.1c0-0.7-0.2-1.3-0.5-2l-15.7-32.3c-0.5-1-1.2-1.8-2.2-2.3c-2-1.1-4.5-1.1-6.3,0
			C377.8,68.2,377.1,68.9,376.6,69.9z M382.1,77.7l6.5,14.5h-13L382.1,77.7z"/>
		<path class="st5" d="M436.5,67.2h-15.2c-1.5,0-2.7,0.4-3.5,1.2c-0.8,0.8-1.2,2-1.2,3.5v31.8c0,1.6,0.5,2.8,1.4,3.7
			c0.9,0.9,2.1,1.4,3.7,1.4c1.6,0,2.9-0.5,3.8-1.4c0.9-0.9,1.4-2.1,1.4-3.7V93.2h9.7c4.5,0,8-1.2,10.6-3.5c2.5-2.3,3.8-5.5,3.8-9.6
			c0-4.1-1.3-7.3-3.8-9.6C444.6,68.3,441.1,67.2,436.5,67.2z M439.8,84.4c-1,0.9-2.6,1.3-4.7,1.3h-8.2v-11h8.2
			c4.2,0,6.3,1.9,6.3,5.5C441.3,82.1,440.8,83.5,439.8,84.4z"/>
		<path class="st5" d="M470.6,93.2h9.7c4.5,0,8-1.2,10.6-3.5c2.5-2.3,3.8-5.5,3.8-9.6c0-4.1-1.3-7.3-3.8-9.6
			c-2.5-2.3-6.1-3.4-10.6-3.4h-15.2c-1.5,0-2.7,0.4-3.5,1.2c-0.8,0.8-1.2,2-1.2,3.5v31.8c0,1.6,0.5,2.8,1.4,3.7
			c0.9,0.9,2.1,1.4,3.7,1.4c1.6,0,2.9-0.5,3.8-1.4c0.9-0.9,1.4-2.1,1.4-3.7V93.2z M470.6,74.7h8.2c4.2,0,6.3,1.9,6.3,5.5
			c0,1.8-0.5,3.2-1.6,4.1c-1,0.9-2.6,1.3-4.7,1.3h-8.2V74.7z"/>
	</g>
	<path class="st5" d="M57.3,36.6L6.9,4.4C6.1,4,5.2,4.6,5.4,5.5L20,68c0.9,3.6,2.8,6.8,5.5,9.2L63,110.2c0.7,0.6,1.7,0.1,1.7-0.8
		l-0.9-13.1c-0.2-2.4-1.4-4.6-3.2-6.1l-10.7-8.5c-3.6-2.8-6-6.9-6.8-11.4l-2.2-12.6c-0.6-3.2,0.7-6.6,3.3-8.4c3-2.2,7-2.2,10-0.1
		l6.4,4.6l-1-13.6C59.3,38.7,58.6,37.4,57.3,36.6z"/>
	<path class="st5" d="M56.1,73.8l10.7,8.5c4,3.2,6.6,8,7,13.2l1.3,17.7c0.1,0.8,0.9,1.2,1.5,0.8l51.5-33.1c2-1.3,3.2-3.4,3.2-5.8
		V62.8l-6.7,3.9c-2.5,1.5-5.5,1.6-8.1,0.4c-2.8-1.4-4.6-4.2-4.8-7.3l-0.6-14.3c-0.3-7.3,3.7-14.2,10.2-17.5l5.2-2.7
		c2.9-1.5,4.7-4.4,4.7-7.7V2.8c0-0.8-0.8-1.3-1.5-0.9L71.9,36.2c-1.5,0.9-2.4,2.6-2.2,4.3l1.2,16c0.3,3.4-1.5,6.6-4.6,8.2
		c-2.8,1.4-6.3,1.1-9-0.8l-5.8-4.2l1.5,8.8C53.4,70.6,54.5,72.5,56.1,73.8z"/>
	<path class="st5" d="M144.6,80.9l51.5,33.2c0.6,0.4,1.5,0,1.5-0.8l1.5-18c0.4-5.2,2.9-10,7-13.2l10.4-8.3c1.6-1.3,2.8-3.2,3.1-5.2
		l1.6-8.8l-5.5,4c-2.7,1.9-6.2,2.2-9,0.8c-3.1-1.6-4.8-4.7-4.6-8.2l1.2-15.8c0.1-1.8-0.7-3.4-2.3-4.3L143,1.9
		c-0.7-0.4-1.5,0.1-1.5,0.9l-0.1,14.9c0,7.1-3.9,13.5-10.2,16.7l-5.2,2.7c-3,1.5-4.9,4.7-4.7,8l0.5,11.6l6.8-3.9
		c2.5-1.5,5.8-1.6,8.3-0.2c2.8,1.5,4.5,4.3,4.5,7.5v15.1C141.4,77.4,142.6,79.6,144.6,80.9z"/>
	<path class="st5" d="M215.6,36.6l50.4-32.2c0.8-0.5,1.7,0.2,1.5,1.1L253,68c-0.9,3.6-2.8,6.8-5.5,9.2L210,110.2
		c-0.7,0.6-1.7,0.1-1.7-0.8l0.9-13.1c0.2-2.4,1.4-4.6,3.2-6.1l10.7-8.5c3.6-2.8,6-6.9,6.8-11.4l2.2-12.6c0.6-3.2-0.7-6.6-3.3-8.4
		c-3-2.2-7-2.2-10-0.1l-6.4,4.6l1-13.6C213.6,38.7,214.4,37.4,215.6,36.6z"/>
</g>
</svg>
