<?xml version="1.0" encoding="utf-8"?>
<!-- Generator: Adobe Illustrator 23.0.6, SVG Export Plug-In . SVG Version: 6.00 Build 0)  -->
<svg version="1.1" id="Layer_1" xmlns="http://www.w3.org/2000/svg" xmlns:xlink="http://www.w3.org/1999/xlink" x="0px" y="0px"
	 viewBox="0 0 268 264" style="enable-background:new 0 0 268 264;" xml:space="preserve">
<style type="text/css">
	.st0{fill:#1B272F;}
	.st1{fill:#F7002F;}
	.st2{fill:#32C5FF;}
	.st3{fill:#0EC677;}
	.st4{fill:#FFB031;}
	.st5{fill:#FFFFFF;}
</style>
<g>
	<path class="st0" d="M90.4,161.2c-1,0-1.9,0.3-2.7,0.8c-0.8,0.5-1.4,1.3-1.8,2.4l-8.9,25l-8.4-24.9c-0.4-1.1-1-1.9-1.8-2.4
		c-1.6-1.1-3.8-1.1-5.5,0c-0.8,0.5-1.4,1.3-1.8,2.4l-9,24.4l-8.5-24.4c-0.4-1.1-1-1.9-1.8-2.4c-0.9-0.5-1.8-0.8-2.9-0.8
		c-1.3,0-2.4,0.4-3.4,1.2c-1,0.8-1.4,1.8-1.4,3.2c0,0.7,0.1,1.4,0.4,2.1l12,32.4c0.4,1,1,1.8,2,2.4c1,0.6,2.1,0.9,3.3,0.9
		c1.2,0,2.2-0.3,3.2-0.9c1-0.6,1.6-1.4,2.1-2.4l8.4-23l8.1,23c0.4,1,1,1.8,2,2.4c1,0.6,2.1,0.9,3.3,0.9c1.2,0,2.3-0.3,3.3-0.9
		c1-0.6,1.6-1.4,2-2.4l12-32.4c0.3-0.9,0.5-1.7,0.5-2.3c0-1.3-0.4-2.4-1.3-3.1C92.7,161.6,91.6,161.2,90.4,161.2z"/>
	<path class="st0" d="M132.9,201.9c0.9,0.9,2.1,1.4,3.6,1.4c1.5,0,2.7-0.5,3.6-1.4c0.9-0.9,1.4-2.2,1.4-3.7v-31.8
		c0-1.5-0.4-2.7-1.4-3.6c-0.9-0.9-2.1-1.4-3.6-1.4c-1.5,0-2.7,0.5-3.6,1.4c-0.9,0.9-1.4,2.1-1.4,3.6v11.6h-17.9v-11.6
		c0-1.5-0.4-2.7-1.4-3.6c-0.9-0.9-2.1-1.4-3.6-1.4c-1.5,0-2.7,0.5-3.6,1.4c-0.9,0.9-1.4,2.1-1.4,3.6v31.8c0,1.6,0.5,2.8,1.4,3.7
		c0.9,0.9,2.1,1.4,3.6,1.4c1.5,0,2.7-0.5,3.6-1.4c0.9-0.9,1.4-2.2,1.4-3.7v-12.3h17.9v12.3C131.5,199.7,132,201,132.9,201.9z"/>
	<path class="st0" d="M179.7,164.4c-0.5-1-1.2-1.8-2.2-2.3c-2-1.1-4.5-1.1-6.3,0c-0.9,0.5-1.7,1.3-2.1,2.3l-15.7,32.3
		c-0.3,0.7-0.5,1.4-0.5,2c0,1.2,0.5,2.2,1.5,3.1c1,0.9,2.2,1.3,3.4,1.3c0.8,0,1.6-0.2,2.3-0.7c0.7-0.4,1.3-1.1,1.7-2l2.8-6.2h19.7
		l2.8,6.2c0.4,0.9,1,1.6,1.6,2c0.7,0.4,1.5,0.7,2.3,0.7c1.3,0,2.4-0.4,3.4-1.3c1-0.8,1.5-1.9,1.5-3.1c0-0.7-0.2-1.3-0.5-2
		L179.7,164.4z M168,186.7l6.5-14.5l6.5,14.5H168z"/>
	<path class="st0" d="M212.8,201.8c0.9,0.9,2.2,1.4,3.8,1.4s2.8-0.5,3.8-1.4c0.9-0.9,1.4-2.1,1.4-3.6v-28.4h8.7c1.6,0,2.9-0.3,3.7-1
		c0.8-0.7,1.2-1.7,1.2-3.1c0-1.4-0.4-2.4-1.2-3.1c-0.8-0.7-2-1-3.7-1h-27.9c-1.7,0-2.9,0.3-3.7,1c-0.8,0.6-1.2,1.7-1.2,3.1
		c0,1.4,0.4,2.4,1.2,3.1c0.8,0.7,2,1,3.7,1h8.7v28.4C211.4,199.7,211.8,200.9,212.8,201.8z"/>
	<path class="st0" d="M90.4,220.9c-1,0-1.9,0.3-2.7,0.8c-0.8,0.5-1.4,1.3-1.8,2.4l-8.9,25l-8.4-24.9c-0.4-1.1-1-1.9-1.8-2.4
		c-1.6-1.1-3.8-1.1-5.5,0c-0.8,0.5-1.4,1.3-1.8,2.4l-9,24.4l-8.5-24.4c-0.4-1.1-1-1.9-1.8-2.4c-0.9-0.5-1.8-0.8-2.9-0.8
		c-1.3,0-2.4,0.4-3.4,1.2c-1,0.8-1.4,1.8-1.4,3.2c0,0.7,0.1,1.4,0.4,2.1l12,32.4c0.4,1,1,1.8,2,2.4c1,0.6,2.1,0.9,3.3,0.9
		c1.2,0,2.2-0.3,3.2-0.9c1-0.6,1.6-1.4,2.1-2.4l8.4-23l8.1,23c0.4,1,1,1.8,2,2.4c1,0.6,2.1,0.9,3.3,0.9s2.3-0.3,3.3-0.9
		c1-0.6,1.6-1.4,2-2.4l12-32.4c0.3-0.9,0.5-1.7,0.5-2.3c0-1.3-0.4-2.3-1.3-3.1C92.7,221.3,91.6,220.9,90.4,220.9z"/>
	<path class="st0" d="M117.2,224.1l-15.7,32.3c-0.3,0.7-0.5,1.4-0.5,2c0,1.2,0.5,2.2,1.5,3.1c1,0.9,2.2,1.3,3.4,1.3
		c0.8,0,1.6-0.2,2.3-0.7c0.7-0.4,1.3-1.1,1.7-2l2.8-6.2h19.7l2.8,6.2c0.4,0.9,1,1.6,1.6,2c0.7,0.4,1.5,0.7,2.3,0.7
		c1.3,0,2.4-0.4,3.4-1.3c1-0.8,1.5-1.8,1.5-3.1c0-0.7-0.2-1.3-0.5-2l-15.7-32.3c-0.5-1-1.2-1.8-2.2-2.3c-2-1.1-4.5-1.1-6.3,0
		C118.4,222.3,117.7,223.1,117.2,224.1z M122.7,231.9l6.5,14.5h-13L122.7,231.9z"/>
	<path class="st0" d="M177.2,221.3h-15.2c-1.5,0-2.7,0.4-3.5,1.2c-0.8,0.8-1.2,2-1.2,3.5v31.8c0,1.6,0.5,2.8,1.4,3.7
		c0.9,0.9,2.1,1.4,3.7,1.4c1.6,0,2.9-0.5,3.8-1.4c0.9-0.9,1.4-2.1,1.4-3.7v-10.5h9.7c4.5,0,8-1.2,10.6-3.5c2.5-2.3,3.8-5.5,3.8-9.6
		c0-4.1-1.3-7.3-3.8-9.6C185.2,222.5,181.7,221.3,177.2,221.3z M180.4,238.6c-1,0.9-2.6,1.3-4.7,1.3h-8.2v-11h8.2
		c4.2,0,6.3,1.9,6.3,5.5C182,236.3,181.4,237.7,180.4,238.6z"/>
	<path class="st0" d="M211.2,247.4h9.7c4.5,0,8-1.2,10.6-3.5c2.5-2.3,3.8-5.5,3.8-9.6c0-4.1-1.3-7.3-3.8-9.6
		c-2.5-2.3-6.1-3.4-10.6-3.4h-15.2c-1.5,0-2.7,0.4-3.5,1.2c-0.8,0.8-1.2,2-1.2,3.5v31.8c0,1.6,0.5,2.8,1.4,3.7
		c0.9,0.9,2.1,1.4,3.7,1.4c1.6,0,2.9-0.5,3.8-1.4c0.9-0.9,1.4-2.1,1.4-3.7V247.4z M211.2,228.9h8.2c4.2,0,6.3,1.9,6.3,5.5
		c0,1.8-0.5,3.2-1.6,4.1c-1,0.9-2.6,1.3-4.7,1.3h-8.2V228.9z"/>
</g>
<g>
	<path class="st1" d="M203.1,110.5c-0.1,0.7,0.5,1,0.6,1.1c0.2,0.1,0.7,0.3,1.3-0.2l38.5-33.9c2.9-2.5,4.9-5.9,5.8-9.6l15-63.6
		c0.2-0.7-0.3-1.1-0.5-1.2c-0.1-0.1-0.7-0.4-1.3,0L211,36c-1.5,0.9-2.4,2.6-2.6,4.3l-1.2,15.5l7.8-5.7c1.2-0.9,2.7-1.4,4.2-1.4
		c1.5,0,2.9,0.4,4.1,1.3c2.3,1.6,3.5,4.5,3,7.4l-2.2,12.4c-0.7,4.2-3,7.9-6.3,10.5l-10.2,8.1c-2.1,1.6-3.4,4.1-3.6,6.7L203.1,110.5z
		"/>
	<path class="st2" d="M24.5,77.6L63,111.5c0.5,0.5,1.1,0.2,1.3,0.2c0.2-0.1,0.7-0.4,0.6-1.1l-1.2-15.2c-0.2-2.6-1.5-5.1-3.6-6.7
		l-10.5-8.3c-3.3-2.6-5.5-6.4-6.2-10.5l-2.2-12.4c-0.5-2.8,0.6-5.6,2.8-7.2c2.6-1.9,6-1.9,8.6-0.1l8.1,5.9l-1.2-15.7
		C59.4,38.6,58.4,37,57,36L5.5,3.2C5.2,3,5,3,4.8,3C4.5,3,4.3,3.1,4.2,3.2C4,3.3,3.6,3.7,3.7,4.4l15,63.6
		C19.6,71.7,21.6,75.1,24.5,77.6z"/>
	<path class="st3" d="M57,62.8l-7.8-5.7l2,11.3c0.4,2.3,1.6,4.4,3.4,5.8L65,82.6c3.7,3,6.1,7.4,6.5,12.2l1.5,19
		c0,0.6,0.5,0.9,0.6,0.9c0.2,0.1,0.6,0.3,1.1-0.1l51.8-33.4c2.2-1.5,3.6-3.9,3.6-6.6V60.8l-8.2,4.7c-2.2,1.3-4.8,1.4-6.9,0.3
		c-2.4-1.2-3.9-3.5-4.1-6.2l-0.6-14c-0.3-6.7,3.4-13.1,9.4-16.2l5.1-2.6c3.2-1.6,5.2-4.9,5.2-8.5V2.1c0-0.6-0.4-0.9-0.6-1
		c-0.2-0.1-0.6-0.3-1.2,0L70.1,35.6c-1.8,1.1-2.9,3.1-2.7,5.2l1.2,15.7c0.2,2.9-1.3,5.6-3.9,7C62.3,64.8,59.2,64.5,57,62.8z"/>
	<path class="st4" d="M141.4,81.3l51.9,33.5c0.5,0.3,1,0.1,1.1,0.1c0.2-0.1,0.6-0.4,0.6-0.9l1.5-19.3c0.4-4.8,2.7-9.2,6.5-12.2
		l10.2-8.1c1.8-1.5,3-3.5,3.4-5.8l2-11.3l-7.5,5.5c-2.3,1.7-5.3,1.9-7.7,0.7c-2.6-1.4-4.1-4-3.9-7l1.2-15.5c0.2-2.1-0.9-4.2-2.7-5.3
		L139.5,1.1c-0.5-0.3-1-0.1-1.1,0c-0.2,0.1-0.6,0.4-0.6,1v16.3c0,6.5-3.6,12.4-9.5,15.4l-5.1,2.6c-3.3,1.7-5.4,5.2-5.2,8.9l0.6,13.1
		l8.2-4.7c1.2-0.7,2.5-1,3.8-1c1.2,0,2.3,0.3,3.3,0.8c2.4,1.3,3.9,3.7,3.9,6.4v14.8C137.8,77.3,139.1,79.8,141.4,81.3z"/>
</g>
</svg>
