<svg xmlns="http://www.w3.org/2000/svg" viewBox="0 0 500 500" width="500" height="500">
	<style>
		tspan { white-space:pre }
		.shp0 { fill: #000000 } 
	</style>
	<path id="Layer" fill-rule="evenodd" class="shp0" d="M362.73 198.72C428.46 234.43 473.42 300.9 480 379.42L20 379.42C26.58 300.9 71.54 234.43 137.27 198.72L98.99 132.5C98.47 131.6 98.13 130.6 97.99 129.57C97.86 128.53 97.92 127.48 98.2 126.47C98.47 125.46 98.93 124.52 99.57 123.69C100.21 122.86 101 122.16 101.9 121.64C102.81 121.12 103.81 120.78 104.85 120.64C105.88 120.51 106.94 120.58 107.95 120.85C108.96 121.12 109.91 121.58 110.74 122.22C111.57 122.86 112.26 123.65 112.79 124.55L151.55 191.61C181.19 178.1 214.48 170.57 250 170.57C285.52 170.57 318.81 178.1 348.46 191.61L387.22 124.55C387.74 123.65 388.44 122.86 389.27 122.22C390.1 121.58 391.04 121.12 392.05 120.85C393.06 120.58 394.12 120.51 395.15 120.64C396.19 120.78 397.19 121.12 398.1 121.64C399 122.16 399.79 122.86 400.43 123.69C401.06 124.52 401.53 125.46 401.8 126.47C402.07 127.48 402.14 128.53 402.01 129.57C401.87 130.6 401.53 131.6 401.01 132.5C401.01 132.5 362.73 198.72 362.73 198.72ZM163.3 294.83C163.3 284.28 154.71 275.7 144.14 275.7C133.58 275.7 124.99 284.28 124.99 294.83C124.99 305.38 133.58 313.96 144.14 313.96C154.7 313.96 163.3 305.38 163.3 294.83ZM375.01 294.83C375.01 284.28 366.42 275.7 355.86 275.7C345.3 275.7 336.7 284.28 336.7 294.83C336.7 305.38 345.29 313.96 355.86 313.96C366.42 313.96 375.01 305.38 375.01 294.83Z" />
</svg>