<svg xmlns="http://www.w3.org/2000/svg" viewBox="0 0 500 500" width="500" height="500">
	<style>
		tspan { white-space:pre }
		.shp0 { fill: none;stroke: #000000;stroke-linecap:round;stroke-linejoin:round;stroke-width: 20 } 
	</style>
	<path id="Layer" class="shp0" d="M250 348.57C201.56 348.57 162.4 309.41 162.4 260.95C162.4 212.5 201.56 173.33 250 173.33C298.44 173.33 337.6 212.5 337.6 260.95C337.6 309.41 298.44 348.57 250 348.57Z" />
	<path id="Layer" class="shp0" d="M337.6 260.95L337.6 293.81C337.6 308.33 343.37 322.26 353.64 332.53C363.9 342.8 377.83 348.57 392.35 348.57C406.87 348.57 420.8 342.8 431.06 332.53C441.33 322.26 447.1 308.33 447.1 293.81L447.1 260.95C447.21 173.97 390.32 97.19 307.08 72C223.84 46.81 133.94 79.16 85.82 151.62C37.7 224.07 42.75 319.51 98.23 386.48C153.72 453.46 246.53 476.15 326.65 442.32" />
</svg>