<svg version="1.2" baseProfile="tiny-ps" xmlns="http://www.w3.org/2000/svg" viewBox="0 0 20 20" width="20" height="20"><title>image-svg</title><style>tspan { white-space:pre }.shp0 { fill: #000000 } </style><path fill-rule="evenodd" class="shp0" d="M5.82 1.01C8.46 -0.36 12.11 -0.19 14.2 1.03C14.77 3.85 17.13 5.61 19.04 5.84C20.38 8.36 20.24 12.26 19.02 14.14C16.33 14.85 14.76 16.61 14.2 18.97C11.03 20.64 7.17 19.85 5.86 18.93C5.53 17.08 3.79 14.68 1 14.16C-0.56 11.65 -0.03 7.41 0.98 5.79C3.61 5.24 5.26 3.35 5.82 1.01ZM15.52 9.93C15.52 6.92 13.06 4.48 10 4.48C6.94 4.48 4.48 6.92 4.48 9.93C4.48 12.94 6.94 15.38 10 15.38C13.06 15.38 15.52 12.94 15.52 9.93ZM10 14.29C7.56 14.29 5.58 12.34 5.58 9.93C5.58 7.52 7.56 5.57 10 5.57C12.44 5.57 14.42 7.52 14.42 9.93C14.42 12.34 12.44 14.29 10 14.29ZM17.19 7.87C17.13 7.82 17.07 7.79 16.99 7.79C16.92 7.79 16.85 7.82 16.8 7.87C16.74 7.92 16.71 7.98 16.71 8.05L16.71 11.67C16.71 11.74 16.74 11.8 16.8 11.85C16.85 11.91 16.92 11.93 16.99 11.93C17.07 11.93 17.13 11.91 17.19 11.85L19.15 10.04C19.2 9.99 19.23 9.93 19.23 9.86C19.23 9.79 19.2 9.73 19.15 9.68L17.19 7.87ZM0.71 9.68C0.66 9.73 0.63 9.79 0.63 9.86C0.63 9.93 0.66 9.99 0.71 10.04L2.67 11.85C2.73 11.91 2.79 11.93 2.87 11.93C2.94 11.93 3.01 11.91 3.06 11.85C3.12 11.8 3.15 11.74 3.15 11.67L3.15 8.05C3.15 7.98 3.12 7.92 3.06 7.87C3.01 7.82 2.94 7.79 2.87 7.79C2.79 7.79 2.73 7.82 2.67 7.87L0.71 9.68ZM10.25 0.63C10.2 0.58 10.14 0.55 10.07 0.55C10 0.55 9.94 0.58 9.89 0.63L8.05 2.56C8 2.62 7.97 2.68 7.97 2.76C7.97 2.83 8 2.9 8.05 2.95C8.1 3.01 8.16 3.03 8.23 3.03L11.91 3.03C11.98 3.03 12.04 3.01 12.09 2.95C12.14 2.9 12.17 2.83 12.17 2.76C12.17 2.68 12.14 2.62 12.09 2.56L10.25 0.63ZM12.16 17.23C12.21 17.17 12.24 17.11 12.24 17.03C12.24 16.96 12.21 16.9 12.16 16.84C12.11 16.79 12.05 16.76 11.98 16.76L8.3 16.76C8.23 16.76 8.17 16.79 8.12 16.84C8.07 16.9 8.04 16.96 8.04 17.03C8.04 17.11 8.07 17.17 8.12 17.23L9.96 19.16C10.01 19.21 10.07 19.24 10.14 19.24C10.21 19.24 10.27 19.21 10.32 19.16L12.16 17.23ZM9 10.14L12.02 10.13C12.41 10.13 12.42 10.83 12.02 10.83L8.46 10.9C7.51 10.9 7.44 9.05 8.46 9.03L12.71 9.03C13.1 9.03 13.18 8.34 12.71 8.34L8.25 8.41C6.42 8.41 6.8 11.52 8.4 11.52L12.1 11.53C12.46 11.5 12.99 11.04 13.01 10.83L13.01 9.91C13 9.63 12.8 9.45 12.34 9.45L9 9.45C8.61 9.45 8.6 10.14 9 10.14Z" /></svg>