<svg xmlns="http://www.w3.org/2000/svg" viewBox="0 0 500 500" width="500" height="500">
	<style>
		tspan { white-space:pre }
		.shp0 { fill: #000000 } 
	</style>
	<path id="Layer" class="shp0" d="M250 25.69C122.93 25.69 20 128.68 20 255.69C20 357.33 85.9 443.53 177.26 473.91C188.76 476.07 192.98 468.96 192.98 462.85C192.98 457.38 192.79 442.91 192.69 423.75C128.71 437.62 115.22 392.89 115.22 392.89C104.75 366.34 89.63 359.25 89.63 359.25C68.8 344.99 91.24 345.28 91.24 345.28C114.34 346.89 126.47 368.97 126.47 368.97C146.98 404.14 180.31 393.98 193.46 388.1C195.53 373.22 201.45 363.08 208.03 357.33C156.95 351.58 103.26 331.8 103.26 243.68C103.26 218.57 112.17 198.06 126.93 181.96C124.34 176.15 116.58 152.77 128.94 121.09C128.94 121.09 148.21 114.91 192.19 144.66C210.59 139.54 230.14 137.01 249.69 136.9C269.24 137.01 288.79 139.54 307.19 144.66C350.89 114.91 370.16 121.09 370.16 121.09C382.52 152.77 374.76 176.15 372.46 181.96C387.12 198.06 396.03 218.57 396.03 243.68C396.03 332.03 342.27 351.49 291.09 357.14C299.14 364.04 306.62 378.15 306.62 399.69C306.62 430.47 306.33 455.2 306.33 462.67C306.33 468.71 310.36 475.9 322.14 473.6C414.16 443.43 480 357.18 480 255.69C480 128.68 377.02 25.69 250 25.69" />
</svg>