<svg xmlns="http://www.w3.org/2000/svg" viewBox="0 0 500 500" width="500" height="500">
	<style>
		tspan { white-space:pre }
		.shp0 { fill: #000000 } 
	</style>
	<path id="Layer" fill-rule="evenodd" class="shp0" d="M312.22 21.05C343.53 18.37 351.6 20.15 371.29 34.47L452.73 91.7C466.14 101.54 470.63 104.22 470.63 114.95L470.63 428.86C470.63 448.53 463.48 460.18 438.43 461.95L142.15 479.85C123.37 480.75 114.4 478.06 104.54 465.53L44.57 387.71C33.84 373.4 29.37 362.68 29.37 350.15L29.37 71.12C29.37 55.04 36.54 41.6 57.11 39.84L312.22 21.05ZM120.66 426.18C120.66 440.5 127.81 445.86 143.93 444.96L422.29 428.86C438.41 427.98 440.21 418.13 440.21 406.5L440.21 141.79C440.21 130.17 435.74 123.9 425.87 124.78L134.98 141.79C124.25 142.69 120.66 148.05 120.66 159.67L120.66 426.18ZM395.46 173.97C397.24 182.02 395.46 190.07 387.41 190.99L373.99 193.67L373.99 390.4C362.34 396.66 351.6 400.25 342.65 400.25C328.31 400.25 324.73 395.76 314 382.37L226.27 244.63L226.27 377.88L254.03 384.17C254.03 384.17 254.03 400.27 231.64 400.27L169.88 403.83C168.1 400.27 169.88 391.32 176.15 389.53L192.25 385.07L192.25 208.87L169.92 207.07C168.12 199.02 172.61 187.4 185.12 186.5L251.36 182.03L342.67 321.55L342.67 198.12L319.38 195.45C317.6 185.6 324.75 178.45 333.7 177.57L395.46 173.97ZM105.46 100.65C119.76 112.27 125.13 111.39 152 109.59L405.29 94.39C410.66 94.39 406.19 89.02 404.41 88.14L362.32 57.72C354.27 51.47 343.51 44.3 322.93 46.09L77.69 63.99C68.76 64.87 66.96 69.35 70.52 72.92L105.46 100.65Z" />
</svg>