<svg xmlns="http://www.w3.org/2000/svg" viewBox="0 0 500 500" width="500" height="500">
	<style>
		tspan { white-space:pre }
		.shp0 { fill: none;stroke: #000000;stroke-width: 20 } 
	</style>
	<path id="Layer" class="shp0" d="M47.22 385.89L39.93 450.2C39.76 451.63 39.92 453.09 40.4 454.46C40.87 455.83 41.65 457.07 42.67 458.09C43.7 459.12 44.94 459.89 46.31 460.37C47.68 460.84 49.13 461 50.57 460.83L114.49 453.45C115.02 453.39 115.55 453.28 116.06 453.13C116.57 452.97 117.07 452.78 117.55 452.54C118.03 452.31 118.49 452.03 118.93 451.72C119.36 451.4 119.77 451.06 120.15 450.67L454.51 115.26C456.29 113.48 457.7 111.36 458.67 109.04C459.63 106.71 460.13 104.22 460.13 101.7C460.13 99.18 459.63 96.69 458.67 94.36C457.7 92.03 456.29 89.92 454.51 88.14L411.48 44.92C409.7 43.12 407.58 41.69 405.24 40.72C402.91 39.75 400.4 39.25 397.87 39.25C395.34 39.25 392.84 39.75 390.5 40.72C388.16 41.69 386.04 43.12 384.26 44.92L50 380.33C49.62 380.7 49.27 381.1 48.96 381.53C48.65 381.96 48.38 382.41 48.14 382.88C47.91 383.35 47.71 383.84 47.56 384.35C47.4 384.85 47.29 385.37 47.22 385.89L47.22 385.89Z" />
	<path id="Layer" class="shp0" d="M339.22 90.05L408.51 161.35" />
</svg>