<?xml version="1.0" encoding="utf-8"?>
<!-- Generator: Adobe Illustrator 23.0.6, SVG Export Plug-In . SVG Version: 6.00 Build 0)  -->
<svg version="1.1" id="Layer_1" xmlns="http://www.w3.org/2000/svg" xmlns:xlink="http://www.w3.org/1999/xlink" x="0px" y="0px"
	 viewBox="0 0 268 116" style="enable-background:new 0 0 268 116;" xml:space="preserve">
<style type="text/css">
	.st0{fill:#F7002F;}
	.st1{fill:#32C5FF;}
	.st2{fill:#0EC677;}
	.st3{fill:#FFB031;}
	.st4{fill:#FFFFFF;}
</style>
<g>
	<path class="st4" d="M259.5,3.4L209,35.6c-1.7,1.1-2.9,3-3,5L204.7,57c0,0.2,0.1,0.4,0.3,0.5c0.2,0.1,0.4,0.1,0.6,0l8.6-6.2
		c1.1-0.8,2.3-1.1,3.5-1.1c1.2,0,2.4,0.3,3.4,1.1c2,1.4,2.9,3.8,2.5,6.2l-2.1,12.1c-0.7,3.8-2.7,7.3-5.7,9.7l-10,8
		c-2.3,1.8-3.7,4.5-3.9,7.3l-1.1,15.1c-0.1,2,2.2,3.1,3.6,1.8l37.8-33.2c3-2.6,5.1-6.1,6-10l14.7-62.4
		C263.3,3.8,261.2,2.3,259.5,3.4z"/>
	<path class="st4" d="M25.8,78.1l37.8,33.2c1.5,1.3,3.8,0.1,3.6-1.8l-1.1-14.9c-0.2-2.9-1.6-5.6-3.9-7.3h0L52,79.2
		c-3-2.4-5.1-5.9-5.7-9.7l-2.1-12.1c-0.4-2.3,0.4-4.7,2.3-6.1c2.1-1.6,5-1.6,7.1-0.1l8.9,6.4c0.2,0.1,0.4,0.1,0.6,0
		c0.2-0.1,0.3-0.3,0.3-0.5L62,40.7c-0.2-2.1-1.3-3.9-3-5L8.5,3.4C6.8,2.3,4.7,3.8,5.1,5.7l14.7,62.4C20.7,72,22.8,75.5,25.8,78.1z"
		/>
	<path class="st4" d="M51.6,68.5c0.4,2.5,1.8,4.8,3.8,6.3l10.3,8.2c3.4,2.7,5.6,6.8,5.9,11.2L73,113c0.1,1.7,2,2.6,3.4,1.7
		l50.8-32.8c2.5-1.6,4-4.4,4-7.4V59.9c0-0.2-0.1-0.4-0.3-0.5c-0.2-0.1-0.4-0.1-0.5,0l-8.8,5.1c-1.8,1-4,1.2-5.8,0.3
		c-2-1-3.3-2.9-3.4-5.2l-0.6-13.8c-0.3-6.2,3.1-12,8.7-14.8l5-2.6c3.5-1.8,5.7-5.4,5.7-9.3v-16c0-1.7-1.9-2.8-3.3-1.9L70.8,35.2
		c-2.1,1.3-3.4,3.7-3.2,6.2l1.2,15.4c0.2,2.4-1.1,4.7-3.2,5.8c-2.1,1.1-4.6,0.8-6.4-0.6l-8.7-6.3c0,0-0.2-0.1-0.3-0.1
		c-0.1,0-0.2,0-0.3,0.1c-0.3,0.2-0.3,0.5-0.2,0.6L51.6,68.5z"/>
	<path class="st4" d="M202.4,82.8l10-8c2-1.6,3.3-3.8,3.8-6.3l2.2-12.3c0-0.1,0.1-0.4-0.2-0.6c-0.3-0.2-0.5,0-0.6,0h0l-8.4,6.1
		c-1.9,1.4-4.4,1.7-6.4,0.6c-2.2-1.1-3.4-3.4-3.2-5.8l1.2-15.2c0.2-2.5-1.1-4.9-3.2-6.2L140,1.3c-1.5-0.9-3.3,0.2-3.3,1.9v16
		c0,6-3.4,11.5-8.7,14.2l-5,2.6c-3.6,1.8-5.9,5.7-5.7,9.7l0.6,13.8c0,0.2,0.1,0.4,0.3,0.5c0.2,0.1,0.4,0.1,0.5,0l8.8-5.1
		c1.8-1.1,4.1-1.2,6-0.2c2,1.1,3.2,3.1,3.2,5.3v14.5c0,3,1.5,5.8,4,7.4l50.9,32.8c1.4,0.9,3.2,0,3.4-1.7l1.4-18.9
		C196.8,89.7,198.9,85.6,202.4,82.8z"/>
</g>
</svg>
